<?xml version="1.0" standalone="no"?>
<!DOCTYPE svg PUBLIC "-//W3C//DTD SVG 1.1//EN" "http://www.w3.org/Graphics/SVG/1.1/DTD/svg11.dtd" >
<svg xmlns="http://www.w3.org/2000/svg" xmlns:xlink="http://www.w3.org/1999/xlink" version="1.1">
<metadata>
Created by FontForge 20201107 at Mon Sep 27 13:07:33 2021
 By Unknown
Copyright 2019 CoType Foundry. All Rights Reserved
</metadata>
<defs>
<font id="Betatron-Regular" horiz-adv-x="181" >
  <font-face 
    font-family="Betatron"
    font-weight="400"
    font-stretch="normal"
    units-per-em="1000"
    panose-1="2 1 5 3 2 4 0 0 0 0"
    ascent="800"
    descent="-200"
    x-height="505"
    cap-height="700"
    bbox="-126 -243 1223 952.882"
    underline-thickness="90"
    underline-position="-130"
    stemh="90"
    stemv="90"
    unicode-range="U+000D-25CA"
  />
<missing-glyph horiz-adv-x="630" 
d="M565 -109h-500v829h500v-829zM222 452c44 0 71 28 74 67h-46c-4 -17 -12 -29 -30 -29c-25 0 -35 21 -35 52c0 30 10 52 35 52c18 0 26 -13 30 -30h46c-3 40 -30 68 -74 68c-55 0 -85 -35 -85 -90s30 -90 85 -90zM399 452c53 0 87 38 87 90c0 51 -34 90 -87 90
c-54 0 -87 -39 -87 -90c0 -52 33 -90 87 -90zM399 490c-26 0 -39 22 -39 52s13 52 39 52s39 -22 39 -52s-13 -52 -39 -52zM196 360v-138h47v138h50v40h-146v-40h49zM375 288v-66h47v66l64 112h-52l-35 -65l-33 65h-55zM162 169v-178h46v55h28c40 0 67 24 67 61
c0 38 -27 62 -67 62h-74zM343 169v-178h125v40h-78v31h60v37h-60v30h75v40h-122zM232 84h-24v47h24c14 0 24 -9 24 -24c0 -14 -10 -23 -24 -23z" />
    <glyph glyph-name=".notdef" horiz-adv-x="630" 
d="M565 -109h-500v829h500v-829zM222 452c44 0 71 28 74 67h-46c-4 -17 -12 -29 -30 -29c-25 0 -35 21 -35 52c0 30 10 52 35 52c18 0 26 -13 30 -30h46c-3 40 -30 68 -74 68c-55 0 -85 -35 -85 -90s30 -90 85 -90zM399 452c53 0 87 38 87 90c0 51 -34 90 -87 90
c-54 0 -87 -39 -87 -90c0 -52 33 -90 87 -90zM399 490c-26 0 -39 22 -39 52s13 52 39 52s39 -22 39 -52s-13 -52 -39 -52zM196 360v-138h47v138h50v40h-146v-40h49zM375 288v-66h47v66l64 112h-52l-35 -65l-33 65h-55zM162 169v-178h46v55h28c40 0 67 24 67 61
c0 38 -27 62 -67 62h-74zM343 169v-178h125v40h-78v31h60v37h-60v30h75v40h-122zM232 84h-24v47h24c14 0 24 -9 24 -24c0 -14 -10 -23 -24 -23z" />
    <glyph glyph-name="CR" unicode="&#xd;" horiz-adv-x="610" 
 />
    <glyph glyph-name="space" unicode=" " horiz-adv-x="250" 
 />
    <glyph glyph-name="A" unicode="A" horiz-adv-x="654" 
d="M131 0h-91v223c0 20 8 39 22 53l413 414c13 13 34 13 47 0l79 -80c5 -5 8 -12 8 -19v-558c0 -19 -14 -33 -33 -33h-112c-7 0 -14 3 -19 8l-207 207l62 62l218 -218v550l-387 -388v-221z" />
    <glyph glyph-name="B" unicode="B" horiz-adv-x="632" 
d="M592 566v-64c0 -12 -4 -24 -13 -32l-120 -120l120 -120c9 -8 13 -20 13 -32v-64c0 -15 -5 -29 -16 -40l-78 -78c-10 -10 -24 -16 -39 -16h-221c-8 0 -16 4 -21 9l-81 81h342c13 0 23 10 23 22v71l-90 90c-9 9 -14 22 -14 34v86c0 12 5 25 14 34l90 90v71
c0 12 -10 22 -23 22h-342v-610h-91v700h414c15 0 29 -6 39 -16l78 -78c11 -11 16 -25 16 -40z" />
    <glyph glyph-name="C" unicode="C" horiz-adv-x="605" 
d="M570 0h-392c-15 0 -29 6 -39 16l-78 78c-11 11 -16 25 -16 40v432c0 15 5 29 16 40l78 78c10 10 24 16 39 16h358c19 0 34 -15 34 -34v-92c0 -20 -6 -35 -20 -49l-131 -131l-62 62l153 154h-351c-13 0 -23 -10 -23 -22v-476c0 -12 10 -22 23 -22h411v-90z" />
    <glyph glyph-name="D" unicode="D" horiz-adv-x="654" 
d="M515 684l78 -78c11 -11 16 -25 16 -40v-432c0 -15 -5 -29 -16 -40l-78 -78c-10 -10 -24 -16 -39 -16h-238c-8 0 -16 4 -21 9l-81 81h359c13 0 23 10 23 22v476c0 12 -10 22 -23 22h-359v-610h-91v700h431c15 0 29 -6 39 -16z" />
    <glyph glyph-name="E" unicode="E" horiz-adv-x="591" 
d="M438 304h-262c-15 0 -29 6 -39 16l-76 76c-11 11 -16 24 -16 39v134c0 15 5 28 16 39l76 76c10 10 24 16 39 16h380v-90h-397c-13 0 -23 -10 -23 -22v-172c0 -12 10 -22 23 -22h279v-90zM556 0h-380c-15 0 -29 6 -39 16l-76 76c-11 11 -16 25 -16 39v63c0 11 5 22 12 30
l79 80v-192c0 -12 10 -22 23 -22h397v-90z" />
    <glyph glyph-name="F" unicode="F" horiz-adv-x="558" 
d="M488 304h-312c-15 0 -29 6 -39 16l-76 76c-11 11 -16 24 -16 39v134c0 15 5 28 16 39l76 76c10 10 24 16 39 16h357v-90h-374c-13 0 -23 -10 -23 -22v-172c0 -12 10 -22 23 -22h329v-90zM136 0h-91v194c0 11 5 22 12 30l79 80v-304z" />
    <glyph glyph-name="G" unicode="G" horiz-adv-x="655" 
d="M576 0h-398c-15 0 -29 6 -39 16l-78 78c-11 11 -16 25 -16 40v432c0 15 5 29 16 40l78 78c10 10 24 16 39 16h422v-90h-441c-13 0 -23 -10 -23 -22v-476c0 -12 10 -22 23 -22h391l-265 265l63 62l254 -254c5 -5 8 -12 8 -19v-110c0 -19 -15 -34 -34 -34z" />
    <glyph glyph-name="H" unicode="H" horiz-adv-x="657" 
d="M136 700v-306l-79 80c-7 8 -12 19 -12 30v196h91zM600 474l-79 -80v306h91v-196c0 -11 -5 -22 -12 -30zM136 0h-91v263c0 15 5 28 16 39l76 76c10 10 24 16 39 16h306c15 0 28 -7 38 -16l77 -76c11 -10 15 -24 15 -39v-263h-91v282c0 12 -10 22 -22 22h-340
c-13 0 -23 -10 -23 -22v-282z" />
    <glyph glyph-name="I" unicode="I" 
d="M136 0h-91v700h91v-700z" />
    <glyph glyph-name="J" unicode="J" horiz-adv-x="591" 
d="M452 684l78 -78c11 -11 16 -25 16 -40v-432c0 -15 -5 -29 -16 -40l-78 -78c-10 -10 -24 -16 -39 -16h-344c-19 0 -34 15 -34 34v92c0 20 6 35 20 49l131 131l62 -62l-153 -154h337c13 0 23 10 23 22v476c0 12 -10 22 -23 22h-298v90h279c15 0 29 -6 39 -16z" />
    <glyph glyph-name="K" unicode="K" horiz-adv-x="635" 
d="M136 0h-91v700h91v-700zM587 0h-91v204c0 12 -10 22 -23 22h-185c-8 0 -15 4 -20 9l-78 77c-7 7 -11 16 -11 25s4 18 11 25l338 338l62 -63l-321 -321h185c15 0 29 -6 39 -16l78 -78c11 -11 16 -25 16 -40v-182z" />
    <glyph glyph-name="L" unicode="L" horiz-adv-x="528" 
d="M503 0h-325c-15 0 -29 6 -39 16l-78 78c-11 11 -16 25 -16 40v566h91v-588c0 -12 10 -22 23 -22h344v-90z" />
    <glyph glyph-name="M" unicode="M" horiz-adv-x="853" 
d="M136 0h-91v591c0 8 4 15 9 20l78 78c7 7 16 11 25 11s18 -4 25 -11l273 -273c11 -11 17 -26 17 -41v-375h-91v365l-245 245v-610zM808 0h-91v610l-173 -173l-63 62l190 190c7 7 16 11 25 11s18 -4 25 -11l78 -78c5 -5 9 -12 9 -20v-591z" />
    <glyph glyph-name="N" unicode="N" horiz-adv-x="652" 
d="M136 0h-91v593c0 7 3 14 8 20l78 77c6 6 15 10 24 10s18 -4 24 -10l304 -303l-63 -62l-284 284v-609zM607 0h-91v700h91v-700z" />
    <glyph glyph-name="O" unicode="O" horiz-adv-x="654" 
d="M515 684l78 -78c11 -11 16 -25 16 -40v-432c0 -15 -5 -29 -16 -40l-78 -78c-10 -10 -24 -16 -39 -16h-298c-15 0 -29 6 -39 16l-78 78c-11 11 -16 25 -16 40v432c0 15 5 29 16 40l78 78c10 10 24 16 39 16h298c15 0 29 -6 39 -16zM518 112v476c0 12 -10 22 -23 22h-336
c-13 0 -23 -10 -23 -22v-476c0 -12 10 -22 23 -22h336c13 0 23 10 23 22z" />
    <glyph glyph-name="P" unicode="P" horiz-adv-x="629" 
d="M136 0h-91v700h406c15 0 29 -6 39 -16l78 -78c11 -11 16 -25 16 -40v-287c0 -8 -4 -15 -9 -20l-78 -78c-7 -7 -16 -11 -25 -11s-18 4 -25 11l-226 226l63 62l209 -209v328c0 12 -10 22 -23 22h-334v-610z" />
    <glyph glyph-name="Q" unicode="Q" horiz-adv-x="654" 
d="M515 684l78 -78c11 -11 16 -25 16 -40v-532c0 -19 -15 -34 -34 -34h-109c-8 0 -15 3 -20 8l-206 206l63 62l215 -215v527c0 12 -10 22 -23 22h-336c-13 0 -23 -10 -23 -22v-476c0 -12 10 -22 23 -22h144l-81 -81c-5 -5 -13 -9 -21 -9h-23c-15 0 -29 6 -39 16l-78 78
c-11 11 -16 25 -16 40v432c0 15 5 29 16 40l78 78c10 10 24 16 39 16h298c15 0 29 -6 39 -16z" />
    <glyph glyph-name="R" unicode="R" horiz-adv-x="621" 
d="M452 334h-145l279 -279l-62 -63l-296 296c-7 7 -11 16 -11 25s4 18 11 25l78 77c5 5 12 9 20 9h145c13 0 23 10 23 22v142c0 12 -10 22 -23 22h-335v-610h-91v700h407c15 0 29 -6 39 -16l78 -78c11 -11 16 -25 16 -40v-98c0 -15 -5 -29 -16 -40l-78 -78
c-10 -10 -24 -16 -39 -16z" />
    <glyph glyph-name="S" unicode="S" horiz-adv-x="586" 
d="M293 350l-63 -62l-182 182c-8 8 -13 20 -13 32v64c0 15 5 29 16 40l78 78c10 10 24 16 39 16h378v-90h-397c-13 0 -23 -10 -23 -22v-71zM418 0h-378v90h397c13 0 23 10 23 22v71l-167 167l62 62l182 -182c9 -9 14 -20 14 -32v-64c0 -15 -5 -29 -16 -40l-78 -78
c-10 -10 -24 -16 -39 -16z" />
    <glyph glyph-name="T" unicode="T" horiz-adv-x="611" 
d="M25 610v90h561v-90h-561zM261 469c0 11 5 22 12 30l79 80v-579h-91v469z" />
    <glyph glyph-name="U" unicode="U" horiz-adv-x="628" 
d="M450 0h-272c-15 0 -29 6 -39 16l-78 78c-11 11 -16 25 -16 40v566h91v-588c0 -12 10 -22 23 -22h310c13 0 23 10 23 22v588h91v-566c0 -15 -5 -29 -16 -40l-78 -78c-10 -10 -24 -16 -39 -16z" />
    <glyph glyph-name="V" unicode="V" horiz-adv-x="622" 
d="M155 0c-10 0 -18 4 -25 10l-77 77c-5 6 -8 13 -8 20v593h91v-608l355 356v252h91v-232c0 -35 -13 -68 -38 -92l-365 -366c-7 -6 -15 -10 -24 -10z" />
    <glyph glyph-name="W" unicode="W" horiz-adv-x="853" 
d="M45 109v591h91v-610l245 245v365h91v-375c0 -15 -6 -30 -17 -41l-273 -273c-7 -7 -16 -11 -25 -11s-18 4 -25 11l-78 78c-5 5 -9 12 -9 20zM717 90v610h91v-591c0 -8 -4 -15 -9 -20l-78 -78c-7 -7 -16 -11 -25 -11s-18 4 -25 11l-190 190l63 62z" />
    <glyph glyph-name="X" unicode="X" horiz-adv-x="688" 
d="M383 371h-78c-15 0 -30 6 -40 17l-250 250l62 62l267 -267l266 267l63 -62l-250 -250c-11 -11 -25 -17 -40 -17zM344 267l-267 -267l-62 63l250 249c11 10 25 17 40 17h78c15 0 29 -6 40 -17l250 -249l-63 -63z" />
    <glyph glyph-name="Y" unicode="Y" horiz-adv-x="676" 
d="M384 0h-91v355l-283 283l63 62l294 -294c11 -11 17 -26 17 -41v-365zM666 638l-210 -211l-63 62l211 211z" />
    <glyph glyph-name="Z" unicode="Z" horiz-adv-x="586" 
d="M538 470l-182 -182l-63 62l167 167v71c0 12 -10 22 -23 22h-397v90h378c15 0 29 -6 39 -16l78 -78c11 -11 16 -25 16 -40v-64c0 -12 -5 -24 -13 -32zM546 0h-378c-15 0 -29 6 -39 16l-78 78c-11 11 -16 25 -16 40v64c0 12 5 24 14 32l182 182l62 -62l-167 -167v-71
c0 -12 10 -22 23 -22h397v-90z" />
    <glyph glyph-name="a" unicode="a" horiz-adv-x="543" 
d="M498 0h-91v393c0 12 -10 22 -23 22h-337v90h326c15 0 21 -6 31 -16l78 -78c11 -11 16 -25 16 -40v-371zM305 0h-172c-8 0 -15 4 -20 9l-78 78c-14 14 -14 36 0 50l235 235l63 -62l-220 -220h294l-81 -81c-5 -5 -13 -9 -21 -9z" />
    <glyph glyph-name="b" unicode="b" horiz-adv-x="587" 
d="M409 0h-231c-15 0 -29 6 -39 16l-78 78c-11 11 -16 25 -16 40v566h91v-588c0 -12 10 -22 23 -22h269c13 0 23 10 23 22v303l-219 -219l-63 62l236 236c7 7 16 11 25 11s18 -4 25 -11l78 -78c5 -5 9 -12 9 -20v-262c0 -15 -5 -29 -16 -40l-78 -78c-10 -10 -24 -16 -39 -16
z" />
    <glyph glyph-name="c" unicode="c" horiz-adv-x="510" 
d="M475 0h-297c-15 0 -29 6 -39 16l-78 78c-11 11 -16 25 -16 40v237c0 15 5 29 16 40l78 78c10 10 24 16 39 16h297v-90h-316c-13 0 -23 -10 -23 -22v-281c0 -12 10 -22 23 -22h316v-90z" />
    <glyph glyph-name="d" unicode="d" horiz-adv-x="587" 
d="M409 0h-231c-15 0 -29 6 -39 16l-78 78c-11 11 -16 25 -16 40v262c0 8 4 15 9 20l78 78c7 7 16 11 25 11s18 -4 25 -11l236 -236l-63 -62l-219 219v-303c0 -12 10 -22 23 -22h269c13 0 23 10 23 22v588h91v-566c0 -15 -5 -29 -16 -40l-78 -78c-10 -10 -24 -16 -39 -16z
" />
    <glyph glyph-name="e" unicode="e" horiz-adv-x="531" 
d="M483 0h-305c-15 0 -29 6 -39 16l-78 78c-11 11 -16 25 -16 40v237c0 15 5 29 16 40l78 78c10 10 24 16 39 16h219c8 0 15 -4 20 -9l78 -78c7 -7 11 -16 11 -25s-4 -18 -11 -25l-235 -235l-63 62l220 220h-258c-13 0 -23 -10 -23 -22v-281c0 -12 10 -22 23 -22h324v-90z
" />
    <glyph glyph-name="f" unicode="f" horiz-adv-x="535" 
d="M510 415h-192c-15 0 -29 6 -39 16l-78 78c-11 11 -16 25 -16 40v17c0 15 5 29 16 40l78 78c10 10 24 16 39 16h192v-90h-211c-13 0 -23 -10 -23 -22v-61c0 -12 10 -22 23 -22h211v-90zM185 415h-160v90h51c12 0 23 -4 32 -13zM276 0h-91v415l78 -78c9 -9 13 -20 13 -32
v-305z" />
    <glyph glyph-name="g" unicode="g" horiz-adv-x="597" 
d="M419 -200h-309v90h328c13 0 23 10 23 22v481c0 12 -10 22 -23 22h-279c-13 0 -23 -10 -23 -22v-303l219 219l63 -62l-236 -236c-7 -7 -16 -11 -25 -11s-18 4 -25 11l-78 78c-5 5 -9 12 -9 20v262c0 15 5 29 16 40l78 78c10 10 24 16 39 16h241c15 0 29 -6 39 -16l78 -78
c11 -11 16 -25 16 -40v-437c0 -15 -5 -29 -16 -40l-78 -78c-10 -10 -24 -16 -39 -16z" />
    <glyph glyph-name="h" unicode="h" horiz-adv-x="565" 
d="M136 0h-91v700h91v-700zM520 0h-91v415l-207 -207l-63 62l224 224c7 7 16 11 25 11s18 -4 25 -11l78 -78c5 -5 9 -12 9 -20v-396z" />
    <glyph glyph-name="i" unicode="i" 
d="M129 700v-157l-79 80c-8 7 -12 19 -12 30v47h91zM136 0h-91v505l79 -79c8 -8 12 -19 12 -30v-396z" />
    <glyph glyph-name="j" unicode="j" 
d="M129 700v-157l-79 80c-8 7 -12 19 -12 30v47h91zM3 -200h-129v90h148c13 0 23 10 23 22v593l79 -79c8 -8 12 -19 12 -30v-462c0 -15 -5 -29 -16 -40l-78 -78c-10 -10 -24 -16 -39 -16z" />
    <glyph glyph-name="k" unicode="k" horiz-adv-x="555" 
d="M136 0h-91v700h91v-700zM520 0h-91v106c0 12 -10 22 -23 22h-56l-62 -1c-8 0 -15 4 -20 9l-78 78c-7 7 -11 16 -11 25s4 18 11 25l241 240l62 -63l-224 -223h118c15 0 29 -6 39 -16l78 -78c11 -11 16 -25 16 -40v-84z" />
    <glyph glyph-name="l" unicode="l" horiz-adv-x="283" 
d="M258 0h-80c-15 0 -29 6 -39 16l-78 78c-11 11 -16 25 -16 40v566h91v-588c0 -12 10 -22 23 -22h99v-90z" />
    <glyph glyph-name="m" unicode="m" horiz-adv-x="865" 
d="M136 0h-91v505h91v-505zM478 0h-91v415l-165 -165l-63 62l182 182c7 7 16 11 25 11s18 -4 25 -11l78 -78c5 -5 9 -12 9 -20v-396zM820 0h-91v415l-166 -165l-63 62l183 182c7 7 16 11 25 11s18 -4 25 -11l78 -78c5 -5 9 -12 9 -20v-396z" />
    <glyph glyph-name="n" unicode="n" horiz-adv-x="565" 
d="M136 0h-91v505h91v-505zM520 0h-91v415l-207 -207l-63 62l224 224c7 7 16 11 25 11s18 -4 25 -11l78 -78c5 -5 9 -12 9 -20v-396z" />
    <glyph glyph-name="o" unicode="o" horiz-adv-x="570" 
d="M392 0h-214c-15 0 -29 6 -39 16l-78 78c-11 11 -16 25 -16 40v237c0 15 5 29 16 40l78 78c10 10 24 16 39 16h214c15 0 29 -6 39 -16l78 -78c11 -11 16 -25 16 -40v-237c0 -15 -5 -29 -16 -40l-78 -78c-10 -10 -24 -16 -39 -16zM159 90h252c13 0 23 10 23 22v281
c0 12 -10 22 -23 22h-252c-13 0 -23 -10 -23 -22v-281c0 -12 10 -22 23 -22z" />
    <glyph glyph-name="p" unicode="p" horiz-adv-x="587" 
d="M136 -200h-91v571c0 15 5 29 16 40l78 78c10 10 24 16 39 16h231c15 0 29 -6 39 -16l78 -78c11 -11 16 -25 16 -40v-262c0 -8 -4 -15 -9 -20l-78 -78c-7 -7 -16 -11 -25 -11s-18 4 -25 11l-236 236l63 62l219 -219v303c0 12 -10 22 -23 22h-269c-13 0 -23 -10 -23 -22
v-593z" />
    <glyph glyph-name="q" unicode="q" horiz-adv-x="587" 
d="M542 -200h-91v593c0 12 -10 22 -23 22h-269c-13 0 -23 -10 -23 -22v-303l219 219l63 -62l-236 -236c-7 -7 -16 -11 -25 -11s-18 4 -25 11l-78 78c-5 5 -9 12 -9 20v262c0 15 5 29 16 40l78 78c10 10 24 16 39 16h231c15 0 29 -6 39 -16l78 -78c11 -11 16 -25 16 -40v-571
z" />
    <glyph glyph-name="r" unicode="r" horiz-adv-x="445" 
d="M136 0h-91v371c0 15 5 29 16 40l78 78c10 10 24 16 39 16h242v-90h-261c-13 0 -23 -10 -23 -22v-393z" />
    <glyph glyph-name="s" unicode="s" horiz-adv-x="518" 
d="M75 505h408v-90h-387l163 -163l-62 -62l-147 147c-6 6 -10 15 -10 24v113c0 8 4 16 10 21c6 6 15 10 25 10zM35 0v90h386l-162 162l62 62l147 -147c6 -6 10 -15 10 -24v-112c0 -8 -4 -16 -10 -21c-6 -6 -15 -10 -25 -10h-408z" />
    <glyph glyph-name="t" unicode="t" horiz-adv-x="427" 
d="M393 408h-223c-15 0 -21 6 -31 16l-78 78c-11 11 -16 25 -16 40v109h91v-131c0 -12 10 -22 23 -22h234v-90zM157 0c-9 0 -18 4 -25 11l-78 78c-5 5 -9 12 -9 20v284h91v-303l203 203l63 -62l-220 -220c-7 -7 -16 -11 -25 -11z" />
    <glyph glyph-name="u" unicode="u" horiz-adv-x="561" 
d="M157 0c-9 0 -18 4 -25 11l-78 78c-5 5 -9 12 -9 20v396h91v-415l203 203l63 -62l-220 -220c-7 -7 -16 -11 -25 -11zM516 0h-91v505h91v-505z" />
    <glyph glyph-name="v" unicode="v" horiz-adv-x="547" 
d="M421 372v133h91v-129c0 -24 -9 -47 -26 -64l-301 -300c-8 -8 -17 -12 -28 -12c-10 0 -20 4 -28 12l-75 75c-5 5 -9 13 -9 22v396h91v-418z" />
    <glyph glyph-name="w" unicode="w" horiz-adv-x="764" 
d="M157 0c-9 0 -18 4 -25 11l-78 78c-5 5 -9 12 -9 20v396h91v-415l119 118l63 -62l-136 -135c-7 -7 -16 -11 -25 -11zM453 0c-9 0 -18 4 -25 11l-78 78c-5 5 -9 12 -9 20v396h91v-415l206 205v210h91v-222c0 -14 -6 -27 -15 -36l-236 -236c-7 -7 -16 -11 -25 -11z" />
    <glyph glyph-name="x" unicode="x" horiz-adv-x="501" 
d="M211 134l-134 -134l-62 63l190 190l-190 189l62 63l134 -134c12 -12 18 -25 18 -43v-151c0 -18 -6 -31 -18 -43zM486 63l-62 -63l-134 134c-12 12 -18 25 -18 43v151c0 18 6 31 18 43l134 134l62 -63l-190 -189z" />
    <glyph glyph-name="y" unicode="y" horiz-adv-x="561" 
d="M157 0c-9 0 -18 4 -25 11l-78 78c-5 5 -9 12 -9 20v396h91v-415l203 203l63 -62l-220 -220c-7 -7 -16 -11 -25 -11zM425 505h91v-571c0 -15 -5 -29 -16 -40l-78 -78c-10 -10 -24 -16 -39 -16h-301v90h319c13 0 24 10 24 22v593z" />
    <glyph glyph-name="z" unicode="z" horiz-adv-x="518" 
d="M468 337l-147 -147l-62 62l163 163h-387v90h408c10 0 19 -4 25 -10c6 -5 10 -13 10 -21v-113c0 -9 -4 -18 -10 -24zM259 252l-162 -162h386v-90h-408c-10 0 -19 4 -25 10c-6 5 -10 13 -10 21v112c0 9 4 18 10 24l147 147z" />
    <glyph glyph-name="zero" unicode="0" horiz-adv-x="634" 
d="M456 0h-278c-15 0 -29 6 -39 16l-78 78c-11 11 -16 25 -16 40v432c0 15 5 29 16 40l78 78c10 10 24 16 39 16h278c15 0 29 -6 39 -16l78 -78c11 -11 16 -25 16 -40v-432c0 -15 -5 -29 -16 -40l-78 -78c-10 -10 -24 -16 -39 -16zM159 90h316c13 0 23 10 23 22v476
c0 12 -10 22 -23 22h-316c-13 0 -23 -10 -23 -22v-476c0 -12 10 -22 23 -22zM359 295h-84c-7 0 -12 5 -12 12v86c0 7 5 12 12 12h84c7 0 12 -5 12 -12v-86c0 -7 -5 -12 -12 -12z" />
    <glyph glyph-name="one" unicode="1" horiz-adv-x="540" 
d="M349 90h166v-90h-147c-15 0 -29 6 -39 16l-78 78c-11 11 -16 25 -16 40v454c0 12 -10 22 -23 22h-187v90h168c15 0 29 -6 39 -16l78 -78c11 -11 16 -25 16 -40v-454c0 -12 10 -22 23 -22zM125 0h-100v90h209l-77 -77c-9 -9 -20 -13 -32 -13z" />
    <glyph glyph-name="two" unicode="2" horiz-adv-x="634" 
d="M572 480l-192 -192l-63 62l181 181v57c0 12 -10 22 -23 22h-316c-13 0 -23 -10 -23 -22v-79h-91v57c0 15 5 29 16 40l78 78c10 10 24 16 39 16h278c15 0 29 -6 39 -16l77 -77c11 -11 17 -25 17 -40v-47c0 -15 -6 -29 -17 -40zM589 0h-411c-15 0 -29 6 -39 16l-78 78
c-10 10 -16 24 -16 39v47c0 15 6 29 17 40l193 192l62 -62l-181 -181v-57c0 -12 10 -22 23 -22h430v-90z" />
    <glyph glyph-name="three" unicode="3" horiz-adv-x="634" 
d="M589 566v-64c0 -12 -5 -24 -13 -32l-120 -120l120 -120c8 -8 13 -20 13 -32v-64c0 -15 -5 -29 -16 -40l-78 -78c-10 -10 -24 -16 -39 -16h-278c-15 0 -29 6 -39 16l-78 78c-11 11 -16 25 -16 40v57h91v-79c0 -12 10 -22 23 -22h316c13 0 23 10 23 22v71l-90 90
c-9 9 -14 22 -14 34v86c0 12 5 25 14 34l90 90v71c0 12 -10 22 -23 22h-316c-13 0 -23 -10 -23 -22v-79h-91v57c0 15 5 29 16 40l78 78c10 10 24 16 39 16h278c15 0 29 -6 39 -16l78 -78c11 -11 16 -25 16 -40z" />
    <glyph glyph-name="four" unicode="4" horiz-adv-x="678" 
d="M529 0h-91v171c0 12 -10 22 -23 22h-285c-8 0 -15 4 -20 9l-78 77c-7 7 -12 16 -12 25s5 18 12 25l360 360c7 7 16 11 25 11s18 -4 25 -11l78 -78c5 -5 9 -12 9 -20v-308l-78 78c-9 9 -13 20 -13 32v217l-327 -327h285c15 0 29 -6 39 -16l78 -78c11 -11 16 -25 16 -40
v-149zM658 193h-20c-12 0 -23 4 -32 13l-77 77h129v-90z" />
    <glyph glyph-name="five" unicode="5" horiz-adv-x="624" 
d="M178 700h411v-90h-430c-13 0 -23 -10 -23 -22v-57l181 -181l-62 -62l-193 192c-11 11 -17 25 -17 40v47c0 15 6 29 16 39l78 78c10 10 24 16 39 16zM317 350l63 62l192 -192c11 -11 17 -25 17 -40v-47c0 -15 -6 -29 -17 -40l-77 -77c-10 -10 -24 -16 -39 -16h-278
c-15 0 -29 6 -39 16l-78 78c-11 11 -16 25 -16 40v57h91v-79c0 -12 10 -22 23 -22h316c13 0 23 10 23 22v57z" />
    <glyph glyph-name="six" unicode="6" horiz-adv-x="634" 
d="M456 0h-278c-15 0 -29 6 -39 16l-78 78c-11 11 -16 25 -16 40v432c0 15 5 29 16 40l78 78c10 10 24 16 39 16h372v-90h-391c-13 0 -23 -10 -23 -22v-476c0 -12 10 -22 23 -22h316c13 0 23 10 23 22v303l-219 -219l-63 62l236 236c7 7 16 11 25 11s18 -4 25 -11l78 -78
c5 -5 9 -12 9 -20v-262c0 -15 -5 -29 -16 -40l-78 -78c-10 -10 -24 -16 -39 -16z" />
    <glyph glyph-name="seven" unicode="7" horiz-adv-x="606" 
d="M558 470l-470 -470l-63 62l455 455v71c0 12 -10 22 -23 22h-417v90h398c15 0 29 -6 39 -16l78 -78c11 -11 16 -25 16 -40v-64c0 -12 -5 -24 -13 -32z" />
    <glyph glyph-name="eight" unicode="8" horiz-adv-x="634" 
d="M456 0h-278c-15 0 -29 6 -39 16l-78 78c-11 11 -16 25 -16 40v64c0 12 5 24 13 32l120 120l-120 120c-8 8 -13 20 -13 32v64c0 15 5 29 16 40l78 78c10 10 24 16 39 16h278c15 0 29 -6 39 -16l78 -78c11 -11 16 -25 16 -40v-64c0 -12 -6 -23 -14 -32l-119 -120l119 -120
c8 -9 14 -20 14 -32v-64c0 -15 -5 -29 -16 -40l-78 -78c-10 -10 -24 -16 -39 -16zM159 90h316c13 0 23 10 23 22v71l-91 90c-9 9 -14 22 -14 34v86c0 12 5 25 14 34l91 90v71c0 12 -10 22 -23 22h-316c-13 0 -23 -10 -23 -22v-71l90 -90c9 -9 14 -22 14 -34v-86
c0 -12 -5 -25 -14 -34l-90 -90v-71c0 -12 10 -22 23 -22z" />
    <glyph glyph-name="nine" unicode="9" horiz-adv-x="634" 
d="M178 700h278c15 0 29 -6 39 -16l78 -78c11 -11 16 -25 16 -40v-432c0 -15 -5 -29 -16 -40l-78 -78c-10 -10 -24 -16 -39 -16h-372v90h391c13 0 23 10 23 22v476c0 12 -10 22 -23 22h-316c-13 0 -23 -10 -23 -22v-303l219 219l63 -62l-236 -236c-7 -7 -16 -11 -25 -11
s-18 4 -25 11l-78 78c-5 5 -9 12 -9 20v262c0 15 5 29 16 40l78 78c10 10 24 16 39 16z" />
    <glyph glyph-name="Aacute" unicode="&#xc1;" horiz-adv-x="654" 
d="M556 760h-110l101 106h110zM131 0h-91v223c0 20 8 39 22 53l413 414c13 13 34 13 47 0l79 -80c5 -5 8 -12 8 -19v-558c0 -19 -14 -33 -33 -33h-112c-7 0 -14 3 -19 8l-207 207l62 62l218 -218v550l-387 -388v-221z" />
    <glyph glyph-name="Abreve" unicode="&#x102;" horiz-adv-x="654" 
d="M517 759h-35c-15 0 -29 6 -39 16l-68 68c-11 11 -16 25 -16 40h91v-22c0 -12 10 -22 23 -22h53c13 0 23 10 23 22v22h91c0 -15 -5 -29 -16 -40l-68 -68c-10 -10 -24 -16 -39 -16zM131 0h-91v223c0 20 8 39 22 53l413 414c13 13 34 13 47 0l79 -80c5 -5 8 -12 8 -19v-558
c0 -19 -14 -33 -33 -33h-112c-7 0 -14 3 -19 8l-207 207l62 62l218 -218v550l-387 -388v-221z" />
    <glyph glyph-name="Acircumflex" unicode="&#xc2;" horiz-adv-x="654" 
d="M481 814l-64 -65l-63 62l47 46c9 9 12 11 20 11h160c8 0 12 -2 20 -10l46 -46l-62 -62l-63 64c-12 13 -29 13 -41 0zM131 0h-91v223c0 20 8 39 22 53l413 414c13 13 34 13 47 0l79 -80c5 -5 8 -12 8 -19v-558c0 -19 -14 -33 -33 -33h-112c-7 0 -14 3 -19 8l-207 207
l62 62l218 -218v550l-387 -388v-221z" />
    <glyph glyph-name="Adieresis" unicode="&#xc4;" horiz-adv-x="654" 
d="M458 764h-96v96h96v-96zM639 764h-96v96h96v-96zM131 0h-91v223c0 20 8 39 22 53l413 414c13 13 34 13 47 0l79 -80c5 -5 8 -12 8 -19v-558c0 -19 -14 -33 -33 -33h-112c-7 0 -14 3 -19 8l-207 207l62 62l218 -218v550l-387 -388v-221z" />
    <glyph glyph-name="Agrave" unicode="&#xc0;" horiz-adv-x="654" 
d="M553 760h-110l-101 106h110zM131 0h-91v223c0 20 8 39 22 53l413 414c13 13 34 13 47 0l79 -80c5 -5 8 -12 8 -19v-558c0 -19 -14 -33 -33 -33h-112c-7 0 -14 3 -19 8l-207 207l62 62l218 -218v550l-387 -388v-221z" />
    <glyph glyph-name="Amacron" unicode="&#x100;" horiz-adv-x="654" 
d="M636 772h-273v80h273v-80zM131 0h-91v223c0 20 8 39 22 53l413 414c13 13 34 13 47 0l79 -80c5 -5 8 -12 8 -19v-558c0 -19 -14 -33 -33 -33h-112c-7 0 -14 3 -19 8l-207 207l62 62l218 -218v550l-387 -388v-221z" />
    <glyph glyph-name="Aogonek" unicode="&#x104;" horiz-adv-x="654" 
d="M609 591v-541c0 -13 -6 -22 -14 -30l-128 -129h130v-90h-156c-19 0 -33 14 -33 33v104c0 7 3 14 8 19l40 40l-218 218l62 62l218 -218v550l-387 -388v-221h-91v223c0 20 8 39 22 53l413 414c13 13 34 13 47 0l79 -80c5 -5 8 -12 8 -19z" />
    <glyph glyph-name="Aring" unicode="&#xc5;" horiz-adv-x="654" 
d="M490 734l-97 97c-7 6 -6 16 0 22l95 95c6 6 16 7 22 0l97 -97c7 -6 6 -16 0 -22l-95 -95c-6 -6 -16 -7 -22 0zM473 855v-28c0 -7 6 -13 13 -13h28c9 0 13 4 13 13v28c0 7 -6 13 -13 13h-28c-9 0 -13 -4 -13 -13zM131 0h-91v223c0 20 8 39 22 53l413 414c13 13 34 13 47 0
l79 -80c5 -5 8 -12 8 -19v-558c0 -19 -14 -33 -33 -33h-112c-7 0 -14 3 -19 8l-207 207l62 62l218 -218v550l-387 -388v-221z" />
    <glyph glyph-name="Atilde" unicode="&#xc3;" horiz-adv-x="654" 
d="M553 757h-7c-8 0 -13 1 -19 7l-22 22c-12 12 -17 15 -26 15c-6 0 -11 -1 -16 -6l-44 -44l-63 63l63 62c6 6 11 7 18 7h7c8 0 13 -1 19 -7l22 -22c12 -12 17 -15 26 -15c6 0 11 1 17 7l43 43l63 -63l-63 -62c-6 -6 -11 -7 -18 -7zM131 0h-91v223c0 20 8 39 22 53l413 414
c13 13 34 13 47 0l79 -80c5 -5 8 -12 8 -19v-558c0 -19 -14 -33 -33 -33h-112c-7 0 -14 3 -19 8l-207 207l62 62l218 -218v550l-387 -388v-221z" />
    <glyph glyph-name="AE" unicode="&#xc6;" horiz-adv-x="1024" 
d="M612 90h377v-90h-360c-15 0 -29 6 -39 16l-41 42l-47 -47c-7 -7 -16 -11 -25 -11s-18 4 -25 11l-216 216l63 62l199 -199v326c-1 6 -1 14 -1 19v134c0 4 0 8 1 11v29l-367 -368v-241h-91v243c0 20 8 39 22 53l393 394c13 13 34 13 47 0l46 -47l41 41c10 10 24 16 39 16
h360v-90h-377c-11 0 -20 -7 -22 -16v-3v-197h301v-90h-212l-89 89v-281c0 -12 10 -22 23 -22z" />
    <glyph glyph-name="Cacute" unicode="&#x106;" horiz-adv-x="605" 
d="M399 760h-110l101 106h110zM570 0h-392c-15 0 -29 6 -39 16l-78 78c-11 11 -16 25 -16 40v432c0 15 5 29 16 40l78 78c10 10 24 16 39 16h358c19 0 34 -15 34 -34v-92c0 -20 -6 -35 -20 -49l-131 -131l-62 62l153 154h-351c-13 0 -23 -10 -23 -22v-476
c0 -12 10 -22 23 -22h411v-90z" />
    <glyph glyph-name="Ccaron" unicode="&#x10c;" horiz-adv-x="605" 
d="M195 816l63 62l64 -65c12 -13 29 -13 41 0l63 64l62 -62l-46 -46c-8 -8 -12 -10 -20 -10h-160c-8 0 -11 2 -20 11zM570 0h-392c-15 0 -29 6 -39 16l-78 78c-11 11 -16 25 -16 40v432c0 15 5 29 16 40l78 78c10 10 24 16 39 16h358c19 0 34 -15 34 -34v-92
c0 -20 -6 -35 -20 -49l-131 -131l-62 62l153 154h-351c-13 0 -23 -10 -23 -22v-476c0 -12 10 -22 23 -22h411v-90z" />
    <glyph glyph-name="Ccedilla" unicode="&#xc7;" horiz-adv-x="605" 
d="M550 525l-131 -131l-62 62l153 154h-351c-13 0 -23 -10 -23 -22v-476c0 -12 10 -22 23 -22h411v-90h-172v-19c0 -9 -1 -14 -7 -19l-116 -115c-7 -6 -12 -8 -19 -8h-58v90h81c18 0 28 10 28 28v43h-129c-15 0 -29 6 -39 16l-78 78c-11 11 -16 25 -16 40v432
c0 15 5 29 16 40l78 78c10 10 24 16 39 16h358c19 0 34 -15 34 -34v-92c0 -20 -6 -35 -20 -49z" />
    <glyph glyph-name="Ccircumflex" unicode="&#x108;" horiz-adv-x="605" 
d="M324 814l-64 -65l-63 62l47 46c9 9 12 11 20 11h160c8 0 12 -2 20 -10l46 -46l-62 -62l-63 64c-12 13 -29 13 -41 0zM570 0h-392c-15 0 -29 6 -39 16l-78 78c-11 11 -16 25 -16 40v432c0 15 5 29 16 40l78 78c10 10 24 16 39 16h358c19 0 34 -15 34 -34v-92
c0 -20 -6 -35 -20 -49l-131 -131l-62 62l153 154h-351c-13 0 -23 -10 -23 -22v-476c0 -12 10 -22 23 -22h411v-90z" />
    <glyph glyph-name="Cdotaccent" unicode="&#x10a;" horiz-adv-x="605" 
d="M383 764h-96v96h96v-96zM570 0h-392c-15 0 -29 6 -39 16l-78 78c-11 11 -16 25 -16 40v432c0 15 5 29 16 40l78 78c10 10 24 16 39 16h358c19 0 34 -15 34 -34v-92c0 -20 -6 -35 -20 -49l-131 -131l-62 62l153 154h-351c-13 0 -23 -10 -23 -22v-476c0 -12 10 -22 23 -22
h411v-90z" />
    <glyph glyph-name="Eth" unicode="&#xd0;" horiz-adv-x="679" 
d="M540 684l78 -78c11 -11 16 -25 16 -40v-432c0 -15 -5 -29 -16 -40l-78 -78c-10 -10 -24 -16 -39 -16h-238c-8 0 -16 4 -21 9l-81 81h359c13 0 23 10 23 22v476c0 12 -10 22 -23 22h-359v-610h-91v318h-55v90h55v292h431c15 0 29 -6 39 -16zM277 408h127v-90h-229l83 82
c6 6 11 8 19 8z" />
    <glyph glyph-name="Dcaron" unicode="&#x10e;" horiz-adv-x="654" 
d="M396 759h-160c-8 0 -11 2 -20 11l-47 46l63 62l64 -65c12 -13 29 -13 41 0l63 64l62 -62l-46 -46c-8 -8 -12 -10 -20 -10zM515 684l78 -78c11 -11 16 -25 16 -40v-432c0 -15 -5 -29 -16 -40l-78 -78c-10 -10 -24 -16 -39 -16h-238c-8 0 -16 4 -21 9l-81 81h359
c13 0 23 10 23 22v476c0 12 -10 22 -23 22h-359v-610h-91v700h431c15 0 29 -6 39 -16z" />
    <glyph glyph-name="Dcroat" unicode="&#x110;" horiz-adv-x="679" 
d="M540 684l78 -78c11 -11 16 -25 16 -40v-432c0 -15 -5 -29 -16 -40l-78 -78c-10 -10 -24 -16 -39 -16h-238c-8 0 -16 4 -21 9l-81 81h359c13 0 23 10 23 22v476c0 12 -10 22 -23 22h-359v-610h-91v318h-55v90h55v292h431c15 0 29 -6 39 -16zM277 408h127v-90h-229l83 82
c6 6 11 8 19 8z" />
    <glyph glyph-name="Eacute" unicode="&#xc9;" horiz-adv-x="591" 
d="M397 760h-110l101 106h110zM438 304h-262c-15 0 -29 6 -39 16l-76 76c-11 11 -16 24 -16 39v134c0 15 5 28 16 39l76 76c10 10 24 16 39 16h380v-90h-397c-13 0 -23 -10 -23 -22v-172c0 -12 10 -22 23 -22h279v-90zM556 0h-380c-15 0 -29 6 -39 16l-76 76
c-11 11 -16 25 -16 39v63c0 11 5 22 12 30l79 80v-192c0 -12 10 -22 23 -22h397v-90z" />
    <glyph glyph-name="Ebreve" unicode="&#x114;" horiz-adv-x="591" 
d="M358 759h-35c-15 0 -29 6 -39 16l-68 68c-11 11 -16 25 -16 40h91v-22c0 -12 10 -22 23 -22h53c13 0 23 10 23 22v22h91c0 -15 -5 -29 -16 -40l-68 -68c-10 -10 -24 -16 -39 -16zM438 304h-262c-15 0 -29 6 -39 16l-76 76c-11 11 -16 24 -16 39v134c0 15 5 28 16 39
l76 76c10 10 24 16 39 16h380v-90h-397c-13 0 -23 -10 -23 -22v-172c0 -12 10 -22 23 -22h279v-90zM556 0h-380c-15 0 -29 6 -39 16l-76 76c-11 11 -16 25 -16 39v63c0 11 5 22 12 30l79 80v-192c0 -12 10 -22 23 -22h397v-90z" />
    <glyph glyph-name="Ecaron" unicode="&#x11a;" horiz-adv-x="591" 
d="M193 816l63 62l64 -65c12 -13 29 -13 41 0l63 64l62 -62l-46 -46c-8 -8 -12 -10 -20 -10h-160c-8 0 -11 2 -20 11zM438 304h-262c-15 0 -29 6 -39 16l-76 76c-11 11 -16 24 -16 39v134c0 15 5 28 16 39l76 76c10 10 24 16 39 16h380v-90h-397c-13 0 -23 -10 -23 -22v-172
c0 -12 10 -22 23 -22h279v-90zM556 0h-380c-15 0 -29 6 -39 16l-76 76c-11 11 -16 25 -16 39v63c0 11 5 22 12 30l79 80v-192c0 -12 10 -22 23 -22h397v-90z" />
    <glyph glyph-name="Ecircumflex" unicode="&#xca;" horiz-adv-x="591" 
d="M322 814l-64 -65l-63 62l47 46c9 9 12 11 20 11h160c8 0 12 -2 20 -10l46 -46l-62 -62l-63 64c-12 13 -29 13 -41 0zM438 304h-262c-15 0 -29 6 -39 16l-76 76c-11 11 -16 24 -16 39v134c0 15 5 28 16 39l76 76c10 10 24 16 39 16h380v-90h-397c-13 0 -23 -10 -23 -22
v-172c0 -12 10 -22 23 -22h279v-90zM556 0h-380c-15 0 -29 6 -39 16l-76 76c-11 11 -16 25 -16 39v63c0 11 5 22 12 30l79 80v-192c0 -12 10 -22 23 -22h397v-90z" />
    <glyph glyph-name="Edieresis" unicode="&#xcb;" horiz-adv-x="591" 
d="M299 764h-96v96h96v-96zM480 764h-96v96h96v-96zM438 304h-262c-15 0 -29 6 -39 16l-76 76c-11 11 -16 24 -16 39v134c0 15 5 28 16 39l76 76c10 10 24 16 39 16h380v-90h-397c-13 0 -23 -10 -23 -22v-172c0 -12 10 -22 23 -22h279v-90zM556 0h-380c-15 0 -29 6 -39 16
l-76 76c-11 11 -16 25 -16 39v63c0 11 5 22 12 30l79 80v-192c0 -12 10 -22 23 -22h397v-90z" />
    <glyph glyph-name="Edotaccent" unicode="&#x116;" horiz-adv-x="591" 
d="M381 764h-96v96h96v-96zM438 304h-262c-15 0 -29 6 -39 16l-76 76c-11 11 -16 24 -16 39v134c0 15 5 28 16 39l76 76c10 10 24 16 39 16h380v-90h-397c-13 0 -23 -10 -23 -22v-172c0 -12 10 -22 23 -22h279v-90zM556 0h-380c-15 0 -29 6 -39 16l-76 76
c-11 11 -16 25 -16 39v63c0 11 5 22 12 30l79 80v-192c0 -12 10 -22 23 -22h397v-90z" />
    <glyph glyph-name="Egrave" unicode="&#xc8;" horiz-adv-x="591" 
d="M394 760h-110l-101 106h110zM438 304h-262c-15 0 -29 6 -39 16l-76 76c-11 11 -16 24 -16 39v134c0 15 5 28 16 39l76 76c10 10 24 16 39 16h380v-90h-397c-13 0 -23 -10 -23 -22v-172c0 -12 10 -22 23 -22h279v-90zM556 0h-380c-15 0 -29 6 -39 16l-76 76
c-11 11 -16 25 -16 39v63c0 11 5 22 12 30l79 80v-192c0 -12 10 -22 23 -22h397v-90z" />
    <glyph glyph-name="Emacron" unicode="&#x112;" horiz-adv-x="591" 
d="M477 772h-273v80h273v-80zM438 304h-262c-15 0 -29 6 -39 16l-76 76c-11 11 -16 24 -16 39v134c0 15 5 28 16 39l76 76c10 10 24 16 39 16h380v-90h-397c-13 0 -23 -10 -23 -22v-172c0 -12 10 -22 23 -22h279v-90zM556 0h-380c-15 0 -29 6 -39 16l-76 76
c-11 11 -16 25 -16 39v63c0 11 5 22 12 30l79 80v-192c0 -12 10 -22 23 -22h397v-90z" />
    <glyph glyph-name="Eogonek" unicode="&#x118;" horiz-adv-x="591" 
d="M137 320l-76 76c-11 11 -16 24 -16 39v134c0 15 5 28 16 39l76 76c10 10 24 16 39 16h380v-90h-397c-13 0 -23 -10 -23 -22v-172c0 -12 10 -22 23 -22h279v-90h-262c-15 0 -29 6 -39 16zM556 0l-109 -109h130v-90h-156c-19 0 -33 14 -33 33v104c0 7 3 14 8 19l43 43h-263
c-15 0 -29 6 -39 16l-76 76c-11 11 -16 25 -16 39v63c0 11 5 22 12 30l79 80v-192c0 -12 10 -22 23 -22h397v-90z" />
    <glyph glyph-name="Gbreve" unicode="&#x11e;" horiz-adv-x="655" 
d="M345 759h-35c-15 0 -29 6 -39 16l-68 68c-11 11 -16 25 -16 40h91v-22c0 -12 10 -22 23 -22h53c13 0 23 10 23 22v22h91c0 -15 -5 -29 -16 -40l-68 -68c-10 -10 -24 -16 -39 -16zM576 0h-398c-15 0 -29 6 -39 16l-78 78c-11 11 -16 25 -16 40v432c0 15 5 29 16 40l78 78
c10 10 24 16 39 16h422v-90h-441c-13 0 -23 -10 -23 -22v-476c0 -12 10 -22 23 -22h391l-265 265l63 62l254 -254c5 -5 8 -12 8 -19v-110c0 -19 -15 -34 -34 -34z" />
    <glyph glyph-name="Gcircumflex" unicode="&#x11c;" horiz-adv-x="655" 
d="M309 814l-64 -65l-63 62l47 46c9 9 12 11 20 11h160c8 0 12 -2 20 -10l46 -46l-62 -62l-63 64c-12 13 -29 13 -41 0zM576 0h-398c-15 0 -29 6 -39 16l-78 78c-11 11 -16 25 -16 40v432c0 15 5 29 16 40l78 78c10 10 24 16 39 16h422v-90h-441c-13 0 -23 -10 -23 -22v-476
c0 -12 10 -22 23 -22h391l-265 265l63 62l254 -254c5 -5 8 -12 8 -19v-110c0 -19 -15 -34 -34 -34z" />
    <glyph glyph-name="uni0122" unicode="&#x122;" horiz-adv-x="655" 
d="M576 0h-398c-15 0 -29 6 -39 16l-78 78c-11 11 -16 25 -16 40v432c0 15 5 29 16 40l78 78c10 10 24 16 39 16h422v-90h-441c-13 0 -23 -10 -23 -22v-476c0 -12 10 -22 23 -22h391l-265 265l63 62l254 -254c5 -5 8 -12 8 -19v-110c0 -19 -15 -34 -34 -34zM282 -129v65h91
v-80c0 -12 -4 -23 -13 -32l-67 -67l-62 63z" />
    <glyph glyph-name="Gdotaccent" unicode="&#x120;" horiz-adv-x="655" 
d="M368 764h-96v96h96v-96zM576 0h-398c-15 0 -29 6 -39 16l-78 78c-11 11 -16 25 -16 40v432c0 15 5 29 16 40l78 78c10 10 24 16 39 16h422v-90h-441c-13 0 -23 -10 -23 -22v-476c0 -12 10 -22 23 -22h391l-265 265l63 62l254 -254c5 -5 8 -12 8 -19v-110
c0 -19 -15 -34 -34 -34z" />
    <glyph glyph-name="Hbar" unicode="&#x126;" horiz-adv-x="713" 
d="M73 484v43h-63v90h63v83h91v-326l-79 80c-7 8 -12 19 -12 30zM640 617h63v-90h-63v-43c0 -11 -5 -22 -12 -30l-79 -80v153h-373l82 82c6 6 12 8 20 8h271v83h91v-83zM548 358l77 -76c11 -10 15 -24 15 -39v-243h-91v262c0 12 -10 22 -22 22h-340c-13 0 -23 -10 -23 -22
v-262h-91v243c0 15 5 28 16 39l76 76c10 10 24 16 39 16h306c15 0 28 -7 38 -16z" />
    <glyph glyph-name="Hcircumflex" unicode="&#x124;" horiz-adv-x="657" 
d="M310 814l-64 -65l-63 62l47 46c9 9 12 11 20 11h160c8 0 12 -2 20 -10l46 -46l-62 -62l-63 64c-12 13 -29 13 -41 0zM136 700v-306l-79 80c-7 8 -12 19 -12 30v196h91zM600 474l-79 -80v306h91v-196c0 -11 -5 -22 -12 -30zM136 0h-91v263c0 15 5 28 16 39l76 76
c10 10 24 16 39 16h306c15 0 28 -7 38 -16l77 -76c11 -10 15 -24 15 -39v-263h-91v282c0 12 -10 22 -22 22h-340c-13 0 -23 -10 -23 -22v-282z" />
    <glyph glyph-name="IJ" unicode="&#x132;" horiz-adv-x="628" 
d="M136 350h-91v350h91v-350zM492 700h91v-566c0 -15 -5 -29 -16 -40l-78 -78c-10 -10 -24 -16 -39 -16h-314c-19 0 -34 15 -34 34v92c0 20 6 35 20 49l131 131l62 -62l-153 -154h307c13 0 23 10 23 22v588z" />
    <glyph glyph-name="Iacute" unicode="&#xcd;" 
d="M147 760h-110l101 106h110zM136 0h-91v700h91v-700z" />
    <glyph glyph-name="Ibreve" unicode="&#x12c;" 
d="M108 759h-35c-15 0 -29 6 -39 16l-68 68c-11 11 -16 25 -16 40h91v-22c0 -12 10 -22 23 -22h53c13 0 23 10 23 22v22h91c0 -15 -5 -29 -16 -40l-68 -68c-10 -10 -24 -16 -39 -16zM136 0h-91v700h91v-700z" />
    <glyph glyph-name="Icircumflex" unicode="&#xce;" 
d="M72 814l-64 -65l-63 62l47 46c9 9 12 11 20 11h160c8 0 12 -2 20 -10l46 -46l-62 -62l-63 64c-12 13 -29 13 -41 0zM136 0h-91v700h91v-700z" />
    <glyph glyph-name="Idieresis" unicode="&#xcf;" 
d="M49 764h-96v96h96v-96zM230 764h-96v96h96v-96zM136 0h-91v700h91v-700z" />
    <glyph glyph-name="Idotaccent" unicode="&#x130;" 
d="M131 764h-96v96h96v-96zM136 0h-91v700h91v-700z" />
    <glyph glyph-name="Igrave" unicode="&#xcc;" 
d="M144 760h-110l-101 106h110zM136 0h-91v700h91v-700z" />
    <glyph glyph-name="Imacron" unicode="&#x12a;" 
d="M227 772h-273v80h273v-80zM136 0h-91v700h91v-700z" />
    <glyph glyph-name="Iogonek" unicode="&#x12e;" 
d="M136 0l-109 -109h130v-90h-156c-19 0 -33 14 -33 33v104c0 7 3 14 8 19l69 69v674h91v-700z" />
    <glyph glyph-name="Itilde" unicode="&#x128;" 
d="M144 757h-7c-8 0 -13 1 -19 7l-22 22c-12 12 -17 15 -26 15c-6 0 -11 -1 -16 -6l-44 -44l-63 63l63 62c6 6 11 7 18 7h7c8 0 13 -1 19 -7l22 -22c12 -12 17 -15 26 -15c6 0 11 1 17 7l43 43l63 -63l-63 -62c-6 -6 -11 -7 -18 -7zM136 0h-91v700h91v-700z" />
    <glyph glyph-name="Jcircumflex" unicode="&#x134;" horiz-adv-x="591" 
d="M288 814l-64 -65l-63 62l47 46c9 9 12 11 20 11h160c8 0 12 -2 20 -10l46 -46l-62 -62l-63 64c-12 13 -29 13 -41 0zM452 684l78 -78c11 -11 16 -25 16 -40v-432c0 -15 -5 -29 -16 -40l-78 -78c-10 -10 -24 -16 -39 -16h-344c-19 0 -34 15 -34 34v92c0 20 6 35 20 49
l131 131l62 -62l-153 -154h337c13 0 23 10 23 22v476c0 12 -10 22 -23 22h-298v90h279c15 0 29 -6 39 -16z" />
    <glyph glyph-name="uni0136" unicode="&#x136;" horiz-adv-x="635" 
d="M136 0h-91v700h91v-700zM587 0h-91v204c0 12 -10 22 -23 22h-185c-8 0 -15 4 -20 9l-78 77c-7 7 -11 16 -11 25s4 18 11 25l338 338l62 -63l-321 -321h185c15 0 29 -6 39 -16l78 -78c11 -11 16 -25 16 -40v-182zM272 -129v65h91v-80c0 -12 -4 -23 -13 -32l-67 -67l-62 63
z" />
    <glyph glyph-name="Lacute" unicode="&#x139;" horiz-adv-x="528" 
d="M147 760h-110l101 106h110zM503 0h-325c-15 0 -29 6 -39 16l-78 78c-11 11 -16 25 -16 40v566h91v-588c0 -12 10 -22 23 -22h344v-90z" />
    <glyph glyph-name="Lcaron" unicode="&#x13d;" horiz-adv-x="528" 
d="M503 0h-325c-15 0 -29 6 -39 16l-78 78c-11 11 -16 25 -16 40v566h91v-588c0 -12 10 -22 23 -22h344v-90zM295 554h-80v146h90z" />
    <glyph glyph-name="uni013B" unicode="&#x13b;" horiz-adv-x="528" 
d="M503 0h-325c-15 0 -29 6 -39 16l-78 78c-11 11 -16 25 -16 40v566h91v-588c0 -12 10 -22 23 -22h344v-90zM218 -129v65h91v-80c0 -12 -4 -23 -13 -32l-67 -67l-62 63z" />
    <glyph glyph-name="Ldot" unicode="&#x13f;" horiz-adv-x="528" 
d="M503 0h-325c-15 0 -29 6 -39 16l-78 78c-11 11 -16 25 -16 40v566h91v-588c0 -12 10 -22 23 -22h344v-90zM399 332h-99v98h99v-98z" />
    <glyph glyph-name="Lslash" unicode="&#x141;" horiz-adv-x="584" 
d="M215 90h344v-90h-325c-15 0 -29 6 -39 16l-78 78c-11 11 -16 25 -16 40v124l-46 -46l-60 60l106 106v322h91v-231l106 106l60 -60l-166 -166v-237c0 -12 10 -22 23 -22z" />
    <glyph glyph-name="Nacute" unicode="&#x143;" horiz-adv-x="652" 
d="M402 760h-110l101 106h110zM136 0h-91v593c0 7 3 14 8 20l78 77c6 6 15 10 24 10s18 -4 24 -10l304 -303l-63 -62l-284 284v-609zM607 0h-91v700h91v-700z" />
    <glyph glyph-name="Ncaron" unicode="&#x147;" horiz-adv-x="652" 
d="M198 816l63 62l64 -65c12 -13 29 -13 41 0l63 64l62 -62l-46 -46c-8 -8 -12 -10 -20 -10h-160c-8 0 -11 2 -20 11zM136 0h-91v593c0 7 3 14 8 20l78 77c6 6 15 10 24 10s18 -4 24 -10l304 -303l-63 -62l-284 284v-609zM607 0h-91v700h91v-700z" />
    <glyph glyph-name="uni0145" unicode="&#x145;" horiz-adv-x="652" 
d="M136 0h-91v593c0 7 3 14 8 20l78 77c6 6 15 10 24 10s18 -4 24 -10l304 -303l-63 -62l-284 284v-609zM607 0h-91v700h91v-700zM280 -129v65h91v-80c0 -12 -4 -23 -13 -32l-67 -67l-62 63z" />
    <glyph glyph-name="Eng" unicode="&#x14a;" horiz-adv-x="671" 
d="M625 502v-136h1v-414c0 -8 -2 -13 -9 -20l-124 -124c-6 -6 -11 -8 -20 -8h-123c-7 0 -12 5 -12 12v73c0 7 5 12 12 12h149c19 0 30 11 30 30v80c-1 1 -1 3 -1 5v463l-128 128h-228c-19 0 -30 -11 -30 -30v-561c0 -7 -5 -12 -12 -12h-73c-7 0 -12 5 -12 12v536
c0 8 2 14 8 20l124 124c6 6 12 8 20 8h229c8 0 14 -2 20 -8l170 -170c6 -6 9 -11 9 -20z" />
    <glyph glyph-name="Ntilde" unicode="&#xd1;" horiz-adv-x="652" 
d="M399 757h-7c-8 0 -13 1 -19 7l-22 22c-12 12 -17 15 -26 15c-6 0 -11 -1 -16 -6l-44 -44l-63 63l63 62c6 6 11 7 18 7h7c8 0 13 -1 19 -7l22 -22c12 -12 17 -15 26 -15c6 0 11 1 17 7l43 43l63 -63l-63 -62c-6 -6 -11 -7 -18 -7zM136 0h-91v593c0 7 3 14 8 20l78 77
c6 6 15 10 24 10s18 -4 24 -10l304 -303l-63 -62l-284 284v-609zM607 0h-91v700h91v-700z" />
    <glyph glyph-name="Oacute" unicode="&#xd3;" horiz-adv-x="654" 
d="M383 760h-110l101 106h110zM515 684l78 -78c11 -11 16 -25 16 -40v-432c0 -15 -5 -29 -16 -40l-78 -78c-10 -10 -24 -16 -39 -16h-298c-15 0 -29 6 -39 16l-78 78c-11 11 -16 25 -16 40v432c0 15 5 29 16 40l78 78c10 10 24 16 39 16h298c15 0 29 -6 39 -16zM518 112v476
c0 12 -10 22 -23 22h-336c-13 0 -23 -10 -23 -22v-476c0 -12 10 -22 23 -22h336c13 0 23 10 23 22z" />
    <glyph glyph-name="Obreve" unicode="&#x14e;" horiz-adv-x="654" 
d="M344 759h-35c-15 0 -29 6 -39 16l-68 68c-11 11 -16 25 -16 40h91v-22c0 -12 10 -22 23 -22h53c13 0 23 10 23 22v22h91c0 -15 -5 -29 -16 -40l-68 -68c-10 -10 -24 -16 -39 -16zM515 684l78 -78c11 -11 16 -25 16 -40v-432c0 -15 -5 -29 -16 -40l-78 -78
c-10 -10 -24 -16 -39 -16h-298c-15 0 -29 6 -39 16l-78 78c-11 11 -16 25 -16 40v432c0 15 5 29 16 40l78 78c10 10 24 16 39 16h298c15 0 29 -6 39 -16zM518 112v476c0 12 -10 22 -23 22h-336c-13 0 -23 -10 -23 -22v-476c0 -12 10 -22 23 -22h336c13 0 23 10 23 22z" />
    <glyph glyph-name="Ocircumflex" unicode="&#xd4;" horiz-adv-x="654" 
d="M308 814l-64 -65l-63 62l47 46c9 9 12 11 20 11h160c8 0 12 -2 20 -10l46 -46l-62 -62l-63 64c-12 13 -29 13 -41 0zM515 684l78 -78c11 -11 16 -25 16 -40v-432c0 -15 -5 -29 -16 -40l-78 -78c-10 -10 -24 -16 -39 -16h-298c-15 0 -29 6 -39 16l-78 78
c-11 11 -16 25 -16 40v432c0 15 5 29 16 40l78 78c10 10 24 16 39 16h298c15 0 29 -6 39 -16zM518 112v476c0 12 -10 22 -23 22h-336c-13 0 -23 -10 -23 -22v-476c0 -12 10 -22 23 -22h336c13 0 23 10 23 22z" />
    <glyph glyph-name="Odieresis" unicode="&#xd6;" horiz-adv-x="654" 
d="M285 764h-96v96h96v-96zM466 764h-96v96h96v-96zM515 684l78 -78c11 -11 16 -25 16 -40v-432c0 -15 -5 -29 -16 -40l-78 -78c-10 -10 -24 -16 -39 -16h-298c-15 0 -29 6 -39 16l-78 78c-11 11 -16 25 -16 40v432c0 15 5 29 16 40l78 78c10 10 24 16 39 16h298
c15 0 29 -6 39 -16zM518 112v476c0 12 -10 22 -23 22h-336c-13 0 -23 -10 -23 -22v-476c0 -12 10 -22 23 -22h336c13 0 23 10 23 22z" />
    <glyph glyph-name="Ograve" unicode="&#xd2;" horiz-adv-x="654" 
d="M380 760h-110l-101 106h110zM515 684l78 -78c11 -11 16 -25 16 -40v-432c0 -15 -5 -29 -16 -40l-78 -78c-10 -10 -24 -16 -39 -16h-298c-15 0 -29 6 -39 16l-78 78c-11 11 -16 25 -16 40v432c0 15 5 29 16 40l78 78c10 10 24 16 39 16h298c15 0 29 -6 39 -16zM518 112
v476c0 12 -10 22 -23 22h-336c-13 0 -23 -10 -23 -22v-476c0 -12 10 -22 23 -22h336c13 0 23 10 23 22z" />
    <glyph glyph-name="Ohungarumlaut" unicode="&#x150;" horiz-adv-x="654" 
d="M568 867l-101 -106h-110l101 106h110zM388 866l-101 -106h-110l101 106h110zM515 684l78 -78c11 -11 16 -25 16 -40v-432c0 -15 -5 -29 -16 -40l-78 -78c-10 -10 -24 -16 -39 -16h-298c-15 0 -29 6 -39 16l-78 78c-11 11 -16 25 -16 40v432c0 15 5 29 16 40l78 78
c10 10 24 16 39 16h298c15 0 29 -6 39 -16zM518 112v476c0 12 -10 22 -23 22h-336c-13 0 -23 -10 -23 -22v-476c0 -12 10 -22 23 -22h336c13 0 23 10 23 22z" />
    <glyph glyph-name="Omacron" unicode="&#x14c;" horiz-adv-x="654" 
d="M463 772h-273v80h273v-80zM515 684l78 -78c11 -11 16 -25 16 -40v-432c0 -15 -5 -29 -16 -40l-78 -78c-10 -10 -24 -16 -39 -16h-298c-15 0 -29 6 -39 16l-78 78c-11 11 -16 25 -16 40v432c0 15 5 29 16 40l78 78c10 10 24 16 39 16h298c15 0 29 -6 39 -16zM518 112v476
c0 12 -10 22 -23 22h-336c-13 0 -23 -10 -23 -22v-476c0 -12 10 -22 23 -22h336c13 0 23 10 23 22z" />
    <glyph glyph-name="Oslash" unicode="&#xd8;" horiz-adv-x="690" 
d="M633 700l62 -62l-68 -68v-4v-432c0 -15 -5 -29 -16 -40l-78 -78c-10 -10 -24 -16 -39 -16h-298c-15 0 -29 6 -39 16l-42 42l-58 -58l-62 62l68 68v4v432c0 15 5 29 16 40l78 78c10 10 24 16 39 16h298c15 0 29 -6 39 -16l42 -42zM154 588v-367l379 379
c-4 6 -12 10 -20 10h-336c-13 0 -23 -10 -23 -22zM536 112v367l-379 -379c4 -6 12 -10 20 -10h336c13 0 23 10 23 22z" />
    <glyph glyph-name="Otilde" unicode="&#xd5;" horiz-adv-x="654" 
d="M380 757h-7c-8 0 -13 1 -19 7l-22 22c-12 12 -17 15 -26 15c-6 0 -11 -1 -16 -6l-44 -44l-63 63l63 62c6 6 11 7 18 7h7c8 0 13 -1 19 -7l22 -22c12 -12 17 -15 26 -15c6 0 11 1 17 7l43 43l63 -63l-63 -62c-6 -6 -11 -7 -18 -7zM515 684l78 -78c11 -11 16 -25 16 -40
v-432c0 -15 -5 -29 -16 -40l-78 -78c-10 -10 -24 -16 -39 -16h-298c-15 0 -29 6 -39 16l-78 78c-11 11 -16 25 -16 40v432c0 15 5 29 16 40l78 78c10 10 24 16 39 16h298c15 0 29 -6 39 -16zM518 112v476c0 12 -10 22 -23 22h-336c-13 0 -23 -10 -23 -22v-476
c0 -12 10 -22 23 -22h336c13 0 23 10 23 22z" />
    <glyph glyph-name="OE" unicode="&#x152;" horiz-adv-x="1004" 
d="M579 588v-476c0 -12 10 -22 23 -22h367v-90h-350c-15 0 -29 6 -39 16l-47 48l-48 -48c-10 -10 -24 -16 -39 -16h-268c-15 0 -29 6 -39 16l-78 78c-11 11 -16 25 -16 40v432c0 15 5 29 16 40l78 78c10 10 24 16 39 16h268c15 0 29 -6 39 -16l48 -47l47 47
c10 10 24 16 39 16h350v-90h-367c-13 0 -23 -10 -23 -22zM488 112v476c0 12 -10 22 -23 22h-306c-13 0 -23 -10 -23 -22v-476c0 -12 10 -22 23 -22h306c13 0 23 10 23 22zM871 394v-90h-202l-90 90h292z" />
    <glyph glyph-name="Thorn" unicode="&#xde;" horiz-adv-x="624" 
d="M490 554l78 -78c11 -11 16 -25 16 -40v-184c0 -15 -5 -29 -16 -40l-78 -78c-10 -10 -24 -16 -39 -16h-218l-90 90h327c13 0 23 10 23 22v228c0 12 -10 22 -23 22h-334v-480h-91v700h91v-130h315c15 0 29 -6 39 -16z" />
    <glyph glyph-name="Racute" unicode="&#x154;" horiz-adv-x="621" 
d="M340 760h-110l101 106h110zM452 334h-145l279 -279l-62 -63l-296 296c-7 7 -11 16 -11 25s4 18 11 25l78 77c5 5 12 9 20 9h145c13 0 23 10 23 22v142c0 12 -10 22 -23 22h-335v-610h-91v700h407c15 0 29 -6 39 -16l78 -78c11 -11 16 -25 16 -40v-98
c0 -15 -5 -29 -16 -40l-78 -78c-10 -10 -24 -16 -39 -16z" />
    <glyph glyph-name="Rcaron" unicode="&#x158;" horiz-adv-x="621" 
d="M136 816l63 62l64 -65c12 -13 29 -13 41 0l63 64l62 -62l-46 -46c-8 -8 -12 -10 -20 -10h-160c-8 0 -11 2 -20 11zM452 334h-145l279 -279l-62 -63l-296 296c-7 7 -11 16 -11 25s4 18 11 25l78 77c5 5 12 9 20 9h145c13 0 23 10 23 22v142c0 12 -10 22 -23 22h-335v-610
h-91v700h407c15 0 29 -6 39 -16l78 -78c11 -11 16 -25 16 -40v-98c0 -15 -5 -29 -16 -40l-78 -78c-10 -10 -24 -16 -39 -16z" />
    <glyph glyph-name="uni0156" unicode="&#x156;" horiz-adv-x="621" 
d="M452 334h-145l279 -279l-62 -63l-296 296c-7 7 -11 16 -11 25s4 18 11 25l78 77c5 5 12 9 20 9h145c13 0 23 10 23 22v142c0 12 -10 22 -23 22h-335v-610h-91v700h407c15 0 29 -6 39 -16l78 -78c11 -11 16 -25 16 -40v-98c0 -15 -5 -29 -16 -40l-78 -78
c-10 -10 -24 -16 -39 -16zM265 -129v65h91v-80c0 -12 -4 -23 -13 -32l-67 -67l-62 63z" />
    <glyph glyph-name="Sacute" unicode="&#x15a;" horiz-adv-x="586" 
d="M375 760h-110l101 106h110zM293 350l-63 -62l-182 182c-8 8 -13 20 -13 32v64c0 15 5 29 16 40l78 78c10 10 24 16 39 16h378v-90h-397c-13 0 -23 -10 -23 -22v-71zM418 0h-378v90h397c13 0 23 10 23 22v71l-167 167l62 62l182 -182c9 -9 14 -20 14 -32v-64
c0 -15 -5 -29 -16 -40l-78 -78c-10 -10 -24 -16 -39 -16z" />
    <glyph glyph-name="Scaron" unicode="&#x160;" horiz-adv-x="586" 
d="M171 816l63 62l64 -65c12 -13 29 -13 41 0l63 64l62 -62l-46 -46c-8 -8 -12 -10 -20 -10h-160c-8 0 -11 2 -20 11zM293 350l-63 -62l-182 182c-8 8 -13 20 -13 32v64c0 15 5 29 16 40l78 78c10 10 24 16 39 16h378v-90h-397c-13 0 -23 -10 -23 -22v-71zM418 0h-378v90
h397c13 0 23 10 23 22v71l-167 167l62 62l182 -182c9 -9 14 -20 14 -32v-64c0 -15 -5 -29 -16 -40l-78 -78c-10 -10 -24 -16 -39 -16z" />
    <glyph glyph-name="Scedilla" unicode="&#x15e;" horiz-adv-x="586" 
d="M126 588v-71l167 -167l-63 -62l-182 182c-8 8 -13 20 -13 32v64c0 15 5 29 16 40l78 78c10 10 24 16 39 16h378v-90h-397c-13 0 -23 -10 -23 -22zM355 412l182 -182c9 -9 14 -20 14 -32v-64c0 -15 -5 -29 -16 -40l-78 -78c-10 -10 -24 -16 -39 -16h-90v-19
c0 -9 -1 -14 -7 -19l-116 -115c-7 -6 -12 -8 -19 -8h-58v90h81c18 0 28 10 28 28v43h-197v90h397c13 0 23 10 23 22v71l-167 167z" />
    <glyph glyph-name="Scircumflex" unicode="&#x15c;" horiz-adv-x="586" 
d="M300 814l-64 -65l-63 62l47 46c9 9 12 11 20 11h160c8 0 12 -2 20 -10l46 -46l-62 -62l-63 64c-12 13 -29 13 -41 0zM293 350l-63 -62l-182 182c-8 8 -13 20 -13 32v64c0 15 5 29 16 40l78 78c10 10 24 16 39 16h378v-90h-397c-13 0 -23 -10 -23 -22v-71zM418 0h-378v90
h397c13 0 23 10 23 22v71l-167 167l62 62l182 -182c9 -9 14 -20 14 -32v-64c0 -15 -5 -29 -16 -40l-78 -78c-10 -10 -24 -16 -39 -16z" />
    <glyph glyph-name="uni0218" unicode="&#x218;" horiz-adv-x="586" 
d="M293 350l-63 -62l-182 182c-8 8 -13 20 -13 32v64c0 15 5 29 16 40l78 78c10 10 24 16 39 16h378v-90h-397c-13 0 -23 -10 -23 -22v-71zM418 0h-378v90h397c13 0 23 10 23 22v71l-167 167l62 62l182 -182c9 -9 14 -20 14 -32v-64c0 -15 -5 -29 -16 -40l-78 -78
c-10 -10 -24 -16 -39 -16zM237 -129v65h91v-80c0 -12 -4 -23 -13 -32l-67 -67l-62 63z" />
    <glyph glyph-name="uni1E9E" unicode="&#x1e9e;" horiz-adv-x="632" 
d="M478 610h-319c-13 0 -23 -10 -23 -22v-588h-91v569c0 15 5 28 16 39l76 76c10 10 24 16 39 16h283c15 0 29 -6 39 -16l78 -78c11 -11 16 -25 16 -40v-64c0 -12 -5 -23 -14 -32l-171 -171l-62 62l156 156v71c0 12 -10 22 -23 22zM501 112v246l91 -91v-133
c0 -15 -5 -29 -16 -40l-78 -78c-10 -10 -24 -16 -39 -16h-232l-90 90h341c13 0 23 10 23 22z" />
    <glyph glyph-name="Tbar" unicode="&#x166;" horiz-adv-x="611" 
d="M25 610v90h561v-90h-561zM261 469c0 11 5 22 12 30l79 80v-579h-91v271h-135v90h135v108zM368 271l82 82c6 6 12 8 20 8h50v-90h-152z" />
    <glyph glyph-name="Tcaron" unicode="&#x164;" horiz-adv-x="611" 
d="M385 759h-160c-8 0 -11 2 -20 11l-47 46l63 62l64 -65c12 -13 29 -13 41 0l63 64l62 -62l-46 -46c-8 -8 -12 -10 -20 -10zM25 610v90h561v-90h-561zM261 469c0 11 5 22 12 30l79 80v-579h-91v469z" />
    <glyph glyph-name="uni0162" unicode="&#x162;" horiz-adv-x="611" 
d="M25 610v90h561v-90h-561zM261 469c0 11 5 22 12 30l79 80v-598c0 -9 -1 -14 -7 -19l-116 -115c-7 -6 -12 -8 -19 -8h-58v90h81c18 0 28 10 28 28v512z" />
    <glyph glyph-name="uni021A" unicode="&#x21a;" horiz-adv-x="611" 
d="M25 610v90h561v-90h-561zM261 469c0 11 5 22 12 30l79 80v-579h-91v469zM210 -180l51 51v65h91v-80c0 -12 -4 -23 -13 -32l-67 -67z" />
    <glyph glyph-name="Uacute" unicode="&#xda;" horiz-adv-x="628" 
d="M370 760h-110l101 106h110zM450 0h-272c-15 0 -29 6 -39 16l-78 78c-11 11 -16 25 -16 40v566h91v-588c0 -12 10 -22 23 -22h310c13 0 23 10 23 22v588h91v-566c0 -15 -5 -29 -16 -40l-78 -78c-10 -10 -24 -16 -39 -16z" />
    <glyph glyph-name="Ubreve" unicode="&#x16c;" horiz-adv-x="628" 
d="M331 759h-35c-15 0 -29 6 -39 16l-68 68c-11 11 -16 25 -16 40h91v-22c0 -12 10 -22 23 -22h53c13 0 23 10 23 22v22h91c0 -15 -5 -29 -16 -40l-68 -68c-10 -10 -24 -16 -39 -16zM450 0h-272c-15 0 -29 6 -39 16l-78 78c-11 11 -16 25 -16 40v566h91v-588
c0 -12 10 -22 23 -22h310c13 0 23 10 23 22v588h91v-566c0 -15 -5 -29 -16 -40l-78 -78c-10 -10 -24 -16 -39 -16z" />
    <glyph glyph-name="Ucircumflex" unicode="&#xdb;" horiz-adv-x="628" 
d="M295 814l-64 -65l-63 62l47 46c9 9 12 11 20 11h160c8 0 12 -2 20 -10l46 -46l-62 -62l-63 64c-12 13 -29 13 -41 0zM450 0h-272c-15 0 -29 6 -39 16l-78 78c-11 11 -16 25 -16 40v566h91v-588c0 -12 10 -22 23 -22h310c13 0 23 10 23 22v588h91v-566
c0 -15 -5 -29 -16 -40l-78 -78c-10 -10 -24 -16 -39 -16z" />
    <glyph glyph-name="Udieresis" unicode="&#xdc;" horiz-adv-x="628" 
d="M272 764h-96v96h96v-96zM453 764h-96v96h96v-96zM450 0h-272c-15 0 -29 6 -39 16l-78 78c-11 11 -16 25 -16 40v566h91v-588c0 -12 10 -22 23 -22h310c13 0 23 10 23 22v588h91v-566c0 -15 -5 -29 -16 -40l-78 -78c-10 -10 -24 -16 -39 -16z" />
    <glyph glyph-name="Ugrave" unicode="&#xd9;" horiz-adv-x="628" 
d="M367 760h-110l-101 106h110zM450 0h-272c-15 0 -29 6 -39 16l-78 78c-11 11 -16 25 -16 40v566h91v-588c0 -12 10 -22 23 -22h310c13 0 23 10 23 22v588h91v-566c0 -15 -5 -29 -16 -40l-78 -78c-10 -10 -24 -16 -39 -16z" />
    <glyph glyph-name="Uhungarumlaut" unicode="&#x170;" horiz-adv-x="628" 
d="M555 867l-101 -106h-110l101 106h110zM375 866l-101 -106h-110l101 106h110zM450 0h-272c-15 0 -29 6 -39 16l-78 78c-11 11 -16 25 -16 40v566h91v-588c0 -12 10 -22 23 -22h310c13 0 23 10 23 22v588h91v-566c0 -15 -5 -29 -16 -40l-78 -78c-10 -10 -24 -16 -39 -16z
" />
    <glyph glyph-name="Umacron" unicode="&#x16a;" horiz-adv-x="628" 
d="M450 772h-273v80h273v-80zM450 0h-272c-15 0 -29 6 -39 16l-78 78c-11 11 -16 25 -16 40v566h91v-588c0 -12 10 -22 23 -22h310c13 0 23 10 23 22v588h91v-566c0 -15 -5 -29 -16 -40l-78 -78c-10 -10 -24 -16 -39 -16z" />
    <glyph glyph-name="Uogonek" unicode="&#x172;" horiz-adv-x="628" 
d="M492 112v588h91v-566c0 -15 -5 -29 -16 -40l-202 -203h130v-91h-156c-19 0 -33 14 -33 33v102c0 7 3 14 8 19l50 46h-186c-15 0 -29 6 -39 16l-78 78c-11 11 -16 25 -16 40v566h91v-588c0 -12 10 -22 23 -22h310c13 0 23 10 23 22z" />
    <glyph glyph-name="Uring" unicode="&#x16e;" horiz-adv-x="628" 
d="M304 734l-97 97c-7 6 -6 16 0 22l95 95c6 6 16 7 22 0l97 -97c7 -6 6 -16 0 -22l-95 -95c-6 -6 -16 -7 -22 0zM287 855v-28c0 -7 6 -13 13 -13h28c9 0 13 4 13 13v28c0 7 -6 13 -13 13h-28c-9 0 -13 -4 -13 -13zM450 0h-272c-15 0 -29 6 -39 16l-78 78
c-11 11 -16 25 -16 40v566h91v-588c0 -12 10 -22 23 -22h310c13 0 23 10 23 22v588h91v-566c0 -15 -5 -29 -16 -40l-78 -78c-10 -10 -24 -16 -39 -16z" />
    <glyph glyph-name="Utilde" unicode="&#x168;" horiz-adv-x="628" 
d="M367 757h-7c-8 0 -13 1 -19 7l-22 22c-12 12 -17 15 -26 15c-6 0 -11 -1 -16 -6l-44 -44l-63 63l63 62c6 6 11 7 18 7h7c8 0 13 -1 19 -7l22 -22c12 -12 17 -15 26 -15c6 0 11 1 17 7l43 43l63 -63l-63 -62c-6 -6 -11 -7 -18 -7zM450 0h-272c-15 0 -29 6 -39 16l-78 78
c-11 11 -16 25 -16 40v566h91v-588c0 -12 10 -22 23 -22h310c13 0 23 10 23 22v588h91v-566c0 -15 -5 -29 -16 -40l-78 -78c-10 -10 -24 -16 -39 -16z" />
    <glyph glyph-name="Wacute" unicode="&#x1e82;" horiz-adv-x="853" 
d="M483 760h-110l101 106h110zM45 109v591h91v-610l245 245v365h91v-375c0 -15 -6 -30 -17 -41l-273 -273c-7 -7 -16 -11 -25 -11s-18 4 -25 11l-78 78c-5 5 -9 12 -9 20zM717 90v610h91v-591c0 -8 -4 -15 -9 -20l-78 -78c-7 -7 -16 -11 -25 -11s-18 4 -25 11l-190 190
l63 62z" />
    <glyph glyph-name="Wcircumflex" unicode="&#x174;" horiz-adv-x="853" 
d="M408 814l-64 -65l-63 62l47 46c9 9 12 11 20 11h160c8 0 12 -2 20 -10l46 -46l-62 -62l-63 64c-12 13 -29 13 -41 0zM45 109v591h91v-610l245 245v365h91v-375c0 -15 -6 -30 -17 -41l-273 -273c-7 -7 -16 -11 -25 -11s-18 4 -25 11l-78 78c-5 5 -9 12 -9 20zM717 90v610
h91v-591c0 -8 -4 -15 -9 -20l-78 -78c-7 -7 -16 -11 -25 -11s-18 4 -25 11l-190 190l63 62z" />
    <glyph glyph-name="Wdieresis" unicode="&#x1e84;" horiz-adv-x="853" 
d="M385 764h-96v96h96v-96zM566 764h-96v96h96v-96zM45 109v591h91v-610l245 245v365h91v-375c0 -15 -6 -30 -17 -41l-273 -273c-7 -7 -16 -11 -25 -11s-18 4 -25 11l-78 78c-5 5 -9 12 -9 20zM717 90v610h91v-591c0 -8 -4 -15 -9 -20l-78 -78c-7 -7 -16 -11 -25 -11
s-18 4 -25 11l-190 190l63 62z" />
    <glyph glyph-name="Wgrave" unicode="&#x1e80;" horiz-adv-x="853" 
d="M480 760h-110l-101 106h110zM45 109v591h91v-610l245 245v365h91v-375c0 -15 -6 -30 -17 -41l-273 -273c-7 -7 -16 -11 -25 -11s-18 4 -25 11l-78 78c-5 5 -9 12 -9 20zM717 90v610h91v-591c0 -8 -4 -15 -9 -20l-78 -78c-7 -7 -16 -11 -25 -11s-18 4 -25 11l-190 190
l63 62z" />
    <glyph glyph-name="Yacute" unicode="&#xdd;" horiz-adv-x="676" 
d="M395 760h-110l101 106h110zM384 0h-91v355l-283 283l63 62l294 -294c11 -11 17 -26 17 -41v-365zM666 638l-210 -211l-63 62l211 211z" />
    <glyph glyph-name="Ycircumflex" unicode="&#x176;" horiz-adv-x="676" 
d="M320 814l-64 -65l-63 62l47 46c9 9 12 11 20 11h160c8 0 12 -2 20 -10l46 -46l-62 -62l-63 64c-12 13 -29 13 -41 0zM384 0h-91v355l-283 283l63 62l294 -294c11 -11 17 -26 17 -41v-365zM666 638l-210 -211l-63 62l211 211z" />
    <glyph glyph-name="Ydieresis" unicode="&#x178;" horiz-adv-x="676" 
d="M297 764h-96v96h96v-96zM478 764h-96v96h96v-96zM384 0h-91v355l-283 283l63 62l294 -294c11 -11 17 -26 17 -41v-365zM666 638l-210 -211l-63 62l211 211z" />
    <glyph glyph-name="Ygrave" unicode="&#x1ef2;" horiz-adv-x="676" 
d="M392 760h-110l-101 106h110zM384 0h-91v355l-283 283l63 62l294 -294c11 -11 17 -26 17 -41v-365zM666 638l-210 -211l-63 62l211 211z" />
    <glyph glyph-name="Zacute" unicode="&#x179;" horiz-adv-x="586" 
d="M346 760h-110l101 106h110zM538 470l-182 -182l-63 62l167 167v71c0 12 -10 22 -23 22h-397v90h378c15 0 29 -6 39 -16l78 -78c11 -11 16 -25 16 -40v-64c0 -12 -5 -24 -13 -32zM546 0h-378c-15 0 -29 6 -39 16l-78 78c-11 11 -16 25 -16 40v64c0 12 5 24 14 32l182 182
l62 -62l-167 -167v-71c0 -12 10 -22 23 -22h397v-90z" />
    <glyph glyph-name="Zcaron" unicode="&#x17d;" horiz-adv-x="586" 
d="M142 816l63 62l64 -65c12 -13 29 -13 41 0l63 64l62 -62l-46 -46c-8 -8 -12 -10 -20 -10h-160c-8 0 -11 2 -20 11zM538 470l-182 -182l-63 62l167 167v71c0 12 -10 22 -23 22h-397v90h378c15 0 29 -6 39 -16l78 -78c11 -11 16 -25 16 -40v-64c0 -12 -5 -24 -13 -32z
M546 0h-378c-15 0 -29 6 -39 16l-78 78c-11 11 -16 25 -16 40v64c0 12 5 24 14 32l182 182l62 -62l-167 -167v-71c0 -12 10 -22 23 -22h397v-90z" />
    <glyph glyph-name="Zdotaccent" unicode="&#x17b;" horiz-adv-x="586" 
d="M330 764h-96v96h96v-96zM538 470l-182 -182l-63 62l167 167v71c0 12 -10 22 -23 22h-397v90h378c15 0 29 -6 39 -16l78 -78c11 -11 16 -25 16 -40v-64c0 -12 -5 -24 -13 -32zM546 0h-378c-15 0 -29 6 -39 16l-78 78c-11 11 -16 25 -16 40v64c0 12 5 24 14 32l182 182
l62 -62l-167 -167v-71c0 -12 10 -22 23 -22h397v-90z" />
    <glyph glyph-name="aacute" unicode="&#xe1;" horiz-adv-x="543" 
d="M319 565h-110l101 106h110zM498 0h-91v393c0 12 -10 22 -23 22h-337v90h326c15 0 21 -6 31 -16l78 -78c11 -11 16 -25 16 -40v-371zM305 0h-172c-8 0 -15 4 -20 9l-78 78c-14 14 -14 36 0 50l235 235l63 -62l-220 -220h294l-81 -81c-5 -5 -13 -9 -21 -9z" />
    <glyph glyph-name="abreve" unicode="&#x103;" horiz-adv-x="543" 
d="M280 564h-35c-15 0 -29 6 -39 16l-68 68c-11 11 -16 25 -16 40h91v-22c0 -12 10 -22 23 -22h53c13 0 23 10 23 22v22h91c0 -15 -5 -29 -16 -40l-68 -68c-10 -10 -24 -16 -39 -16zM498 0h-91v393c0 12 -10 22 -23 22h-337v90h326c15 0 21 -6 31 -16l78 -78
c11 -11 16 -25 16 -40v-371zM305 0h-172c-8 0 -15 4 -20 9l-78 78c-14 14 -14 36 0 50l235 235l63 -62l-220 -220h294l-81 -81c-5 -5 -13 -9 -21 -9z" />
    <glyph glyph-name="acircumflex" unicode="&#xe2;" horiz-adv-x="543" 
d="M244 619l-64 -65l-63 62l47 46c9 9 12 11 20 11h160c8 0 12 -2 20 -10l46 -46l-62 -62l-63 64c-12 13 -29 13 -41 0zM498 0h-91v393c0 12 -10 22 -23 22h-337v90h326c15 0 21 -6 31 -16l78 -78c11 -11 16 -25 16 -40v-371zM305 0h-172c-8 0 -15 4 -20 9l-78 78
c-14 14 -14 36 0 50l235 235l63 -62l-220 -220h294l-81 -81c-5 -5 -13 -9 -21 -9z" />
    <glyph glyph-name="adieresis" unicode="&#xe4;" horiz-adv-x="543" 
d="M221 569h-96v96h96v-96zM402 569h-96v96h96v-96zM498 0h-91v393c0 12 -10 22 -23 22h-337v90h326c15 0 21 -6 31 -16l78 -78c11 -11 16 -25 16 -40v-371zM305 0h-172c-8 0 -15 4 -20 9l-78 78c-14 14 -14 36 0 50l235 235l63 -62l-220 -220h294l-81 -81
c-5 -5 -13 -9 -21 -9z" />
    <glyph glyph-name="agrave" unicode="&#xe0;" horiz-adv-x="543" 
d="M316 565h-110l-101 106h110zM498 0h-91v393c0 12 -10 22 -23 22h-337v90h326c15 0 21 -6 31 -16l78 -78c11 -11 16 -25 16 -40v-371zM305 0h-172c-8 0 -15 4 -20 9l-78 78c-14 14 -14 36 0 50l235 235l63 -62l-220 -220h294l-81 -81c-5 -5 -13 -9 -21 -9z" />
    <glyph glyph-name="amacron" unicode="&#x101;" horiz-adv-x="543" 
d="M399 577h-273v80h273v-80zM498 0h-91v393c0 12 -10 22 -23 22h-337v90h326c15 0 21 -6 31 -16l78 -78c11 -11 16 -25 16 -40v-371zM305 0h-172c-8 0 -15 4 -20 9l-78 78c-14 14 -14 36 0 50l235 235l63 -62l-220 -220h294l-81 -81c-5 -5 -13 -9 -21 -9z" />
    <glyph glyph-name="aogonek" unicode="&#x105;" horiz-adv-x="543" 
d="M498 0l-109 -109h130v-90h-156c-19 0 -33 14 -33 33v104c0 7 3 14 8 19l69 69v367c0 12 -10 22 -23 22h-337v90h326c15 0 21 -6 31 -16l78 -78c11 -11 16 -25 16 -40v-371zM270 372l63 -62l-220 -220h294l-81 -81c-5 -5 -13 -9 -21 -9h-172c-8 0 -15 4 -20 9l-78 78
c-14 14 -14 36 0 50z" />
    <glyph glyph-name="aring" unicode="&#xe5;" horiz-adv-x="543" 
d="M253 539l-97 97c-7 6 -6 16 0 22l95 95c6 6 16 7 22 0l97 -97c7 -6 6 -16 0 -22l-95 -95c-6 -6 -16 -7 -22 0zM236 660v-28c0 -7 6 -13 13 -13h28c9 0 13 4 13 13v28c0 7 -6 13 -13 13h-28c-9 0 -13 -4 -13 -13zM498 0h-91v393c0 12 -10 22 -23 22h-337v90h326
c15 0 21 -6 31 -16l78 -78c11 -11 16 -25 16 -40v-371zM305 0h-172c-8 0 -15 4 -20 9l-78 78c-14 14 -14 36 0 50l235 235l63 -62l-220 -220h294l-81 -81c-5 -5 -13 -9 -21 -9z" />
    <glyph glyph-name="atilde" unicode="&#xe3;" horiz-adv-x="543" 
d="M316 562h-7c-8 0 -13 1 -19 7l-22 22c-12 12 -17 15 -26 15c-6 0 -11 -1 -16 -6l-44 -44l-63 63l63 62c6 6 11 7 18 7h7c8 0 13 -1 19 -7l22 -22c12 -12 17 -15 26 -15c6 0 11 1 17 7l43 43l63 -63l-63 -62c-6 -6 -11 -7 -18 -7zM498 0h-91v393c0 12 -10 22 -23 22h-337
v90h326c15 0 21 -6 31 -16l78 -78c11 -11 16 -25 16 -40v-371zM305 0h-172c-8 0 -15 4 -20 9l-78 78c-14 14 -14 36 0 50l235 235l63 -62l-220 -220h294l-81 -81c-5 -5 -13 -9 -21 -9z" />
    <glyph glyph-name="ae" unicode="&#xe6;" horiz-adv-x="893" 
d="M857 368l-235 -235l-63 62l220 220h-258c-13 0 -23 -10 -23 -22v-281c0 -12 10 -22 23 -22h324v-90h-305c-15 0 -29 6 -39 16l-78 78c-11 11 -16 25 -16 40v259c0 12 -10 22 -23 22h-337v90h326c15 0 21 -6 31 -16l49 -48l48 48c10 10 24 16 39 16h219c8 0 15 -4 20 -9
l78 -78c7 -7 11 -16 11 -25s-4 -18 -11 -25zM270 372l63 -62l-220 -220h294l-81 -81c-5 -5 -13 -9 -21 -9h-172c-8 0 -15 4 -20 9l-78 78c-14 14 -14 36 0 50z" />
    <glyph glyph-name="cacute" unicode="&#x107;" horiz-adv-x="510" 
d="M361 565h-110l101 106h110zM475 0h-297c-15 0 -29 6 -39 16l-78 78c-11 11 -16 25 -16 40v237c0 15 5 29 16 40l78 78c10 10 24 16 39 16h297v-90h-316c-13 0 -23 -10 -23 -22v-281c0 -12 10 -22 23 -22h316v-90z" />
    <glyph glyph-name="ccaron" unicode="&#x10d;" horiz-adv-x="510" 
d="M157 621l63 62l64 -65c12 -13 29 -13 41 0l63 64l62 -62l-46 -46c-8 -8 -12 -10 -20 -10h-160c-8 0 -11 2 -20 11zM475 0h-297c-15 0 -29 6 -39 16l-78 78c-11 11 -16 25 -16 40v237c0 15 5 29 16 40l78 78c10 10 24 16 39 16h297v-90h-316c-13 0 -23 -10 -23 -22v-281
c0 -12 10 -22 23 -22h316v-90z" />
    <glyph glyph-name="ccedilla" unicode="&#xe7;" horiz-adv-x="510" 
d="M475 415h-316c-13 0 -23 -10 -23 -22v-281c0 -12 10 -22 23 -22h316v-90h-105v-19c0 -9 -1 -14 -7 -19l-116 -115c-7 -6 -12 -8 -19 -8h-58v90h81c18 0 28 10 28 28v43h-101c-15 0 -29 6 -39 16l-78 78c-11 11 -16 25 -16 40v237c0 15 5 29 16 40l78 78
c10 10 24 16 39 16h297v-90z" />
    <glyph glyph-name="ccircumflex" unicode="&#x109;" horiz-adv-x="510" 
d="M286 619l-64 -65l-63 62l47 46c9 9 12 11 20 11h160c8 0 12 -2 20 -10l46 -46l-62 -62l-63 64c-12 13 -29 13 -41 0zM475 0h-297c-15 0 -29 6 -39 16l-78 78c-11 11 -16 25 -16 40v237c0 15 5 29 16 40l78 78c10 10 24 16 39 16h297v-90h-316c-13 0 -23 -10 -23 -22v-281
c0 -12 10 -22 23 -22h316v-90z" />
    <glyph glyph-name="cdotaccent" unicode="&#x10b;" horiz-adv-x="510" 
d="M345 569h-96v96h96v-96zM475 0h-297c-15 0 -29 6 -39 16l-78 78c-11 11 -16 25 -16 40v237c0 15 5 29 16 40l78 78c10 10 24 16 39 16h297v-90h-316c-13 0 -23 -10 -23 -22v-281c0 -12 10 -22 23 -22h316v-90z" />
    <glyph glyph-name="eth" unicode="&#xf0;" horiz-adv-x="587" 
d="M496 645l-63 -63l109 -107v-341c0 -15 -5 -29 -16 -40l-78 -78c-10 -10 -24 -16 -39 -16h-231c-15 0 -29 6 -39 16l-78 78c-11 11 -16 25 -16 40v262c0 8 4 15 9 20l78 78c7 7 16 11 25 11s18 -4 25 -11l236 -236l-63 -62l-219 219v-303c0 -12 10 -22 23 -22h269
c13 0 23 10 23 22v331l-79 78l-64 -64l-62 62l64 64l-117 117h121l57 -56l63 63z" />
    <glyph glyph-name="dcaron" unicode="&#x10f;" horiz-adv-x="657" 
d="M409 0h-231c-15 0 -29 6 -39 16l-78 78c-11 11 -16 25 -16 40v262c0 8 4 15 9 20l78 78c7 7 16 11 25 11s18 -4 25 -11l236 -236l-63 -62l-219 219v-303c0 -12 10 -22 23 -22h269c13 0 23 10 23 22v588h91v-566c0 -15 -5 -29 -16 -40l-78 -78c-10 -10 -24 -16 -39 -16z
M671 554h-80v146h90z" />
    <glyph glyph-name="dcroat" unicode="&#x111;" horiz-adv-x="587" 
d="M542 649h59v-90h-59v-425c0 -15 -5 -29 -16 -40l-78 -78c-10 -10 -24 -16 -39 -16h-231c-15 0 -29 6 -39 16l-78 78c-11 11 -16 25 -16 40v262c0 8 4 15 9 20l78 78c7 7 16 11 25 11s18 -4 25 -11l236 -236l-63 -62l-219 219v-303c0 -12 10 -22 23 -22h269
c13 0 23 10 23 22v588h91v-51zM442 649l-82 -82c-6 -6 -12 -8 -20 -8h-88v90h190z" />
    <glyph glyph-name="eacute" unicode="&#xe9;" horiz-adv-x="531" 
d="M342 565h-110l101 106h110zM483 0h-305c-15 0 -29 6 -39 16l-78 78c-11 11 -16 25 -16 40v237c0 15 5 29 16 40l78 78c10 10 24 16 39 16h219c8 0 15 -4 20 -9l78 -78c7 -7 11 -16 11 -25s-4 -18 -11 -25l-235 -235l-63 62l220 220h-258c-13 0 -23 -10 -23 -22v-281
c0 -12 10 -22 23 -22h324v-90z" />
    <glyph glyph-name="ebreve" unicode="&#x115;" horiz-adv-x="531" 
d="M303 564h-35c-15 0 -29 6 -39 16l-68 68c-11 11 -16 25 -16 40h91v-22c0 -12 10 -22 23 -22h53c13 0 23 10 23 22v22h91c0 -15 -5 -29 -16 -40l-68 -68c-10 -10 -24 -16 -39 -16zM483 0h-305c-15 0 -29 6 -39 16l-78 78c-11 11 -16 25 -16 40v237c0 15 5 29 16 40l78 78
c10 10 24 16 39 16h219c8 0 15 -4 20 -9l78 -78c7 -7 11 -16 11 -25s-4 -18 -11 -25l-235 -235l-63 62l220 220h-258c-13 0 -23 -10 -23 -22v-281c0 -12 10 -22 23 -22h324v-90z" />
    <glyph glyph-name="ecaron" unicode="&#x11b;" horiz-adv-x="531" 
d="M138 621l63 62l64 -65c12 -13 29 -13 41 0l63 64l62 -62l-46 -46c-8 -8 -12 -10 -20 -10h-160c-8 0 -11 2 -20 11zM483 0h-305c-15 0 -29 6 -39 16l-78 78c-11 11 -16 25 -16 40v237c0 15 5 29 16 40l78 78c10 10 24 16 39 16h219c8 0 15 -4 20 -9l78 -78
c7 -7 11 -16 11 -25s-4 -18 -11 -25l-235 -235l-63 62l220 220h-258c-13 0 -23 -10 -23 -22v-281c0 -12 10 -22 23 -22h324v-90z" />
    <glyph glyph-name="ecircumflex" unicode="&#xea;" horiz-adv-x="531" 
d="M267 619l-64 -65l-63 62l47 46c9 9 12 11 20 11h160c8 0 12 -2 20 -10l46 -46l-62 -62l-63 64c-12 13 -29 13 -41 0zM483 0h-305c-15 0 -29 6 -39 16l-78 78c-11 11 -16 25 -16 40v237c0 15 5 29 16 40l78 78c10 10 24 16 39 16h219c8 0 15 -4 20 -9l78 -78
c7 -7 11 -16 11 -25s-4 -18 -11 -25l-235 -235l-63 62l220 220h-258c-13 0 -23 -10 -23 -22v-281c0 -12 10 -22 23 -22h324v-90z" />
    <glyph glyph-name="edieresis" unicode="&#xeb;" horiz-adv-x="531" 
d="M244 569h-96v96h96v-96zM425 569h-96v96h96v-96zM483 0h-305c-15 0 -29 6 -39 16l-78 78c-11 11 -16 25 -16 40v237c0 15 5 29 16 40l78 78c10 10 24 16 39 16h219c8 0 15 -4 20 -9l78 -78c7 -7 11 -16 11 -25s-4 -18 -11 -25l-235 -235l-63 62l220 220h-258
c-13 0 -23 -10 -23 -22v-281c0 -12 10 -22 23 -22h324v-90z" />
    <glyph glyph-name="edotaccent" unicode="&#x117;" horiz-adv-x="531" 
d="M326 569h-96v96h96v-96zM483 0h-305c-15 0 -29 6 -39 16l-78 78c-11 11 -16 25 -16 40v237c0 15 5 29 16 40l78 78c10 10 24 16 39 16h219c8 0 15 -4 20 -9l78 -78c7 -7 11 -16 11 -25s-4 -18 -11 -25l-235 -235l-63 62l220 220h-258c-13 0 -23 -10 -23 -22v-281
c0 -12 10 -22 23 -22h324v-90z" />
    <glyph glyph-name="egrave" unicode="&#xe8;" horiz-adv-x="531" 
d="M339 565h-110l-101 106h110zM483 0h-305c-15 0 -29 6 -39 16l-78 78c-11 11 -16 25 -16 40v237c0 15 5 29 16 40l78 78c10 10 24 16 39 16h219c8 0 15 -4 20 -9l78 -78c7 -7 11 -16 11 -25s-4 -18 -11 -25l-235 -235l-63 62l220 220h-258c-13 0 -23 -10 -23 -22v-281
c0 -12 10 -22 23 -22h324v-90z" />
    <glyph glyph-name="emacron" unicode="&#x113;" horiz-adv-x="531" 
d="M422 577h-273v80h273v-80zM483 0h-305c-15 0 -29 6 -39 16l-78 78c-11 11 -16 25 -16 40v237c0 15 5 29 16 40l78 78c10 10 24 16 39 16h219c8 0 15 -4 20 -9l78 -78c7 -7 11 -16 11 -25s-4 -18 -11 -25l-235 -235l-63 62l220 220h-258c-13 0 -23 -10 -23 -22v-281
c0 -12 10 -22 23 -22h324v-90z" />
    <glyph glyph-name="eogonek" unicode="&#x119;" horiz-adv-x="531" 
d="M483 90v-90l-109 -109h130v-90h-156c-19 0 -33 14 -33 33v104c0 7 3 14 8 19l43 43h-188c-15 0 -29 6 -39 16l-78 78c-11 11 -16 25 -16 40v237c0 15 5 29 16 40l78 78c10 10 24 16 39 16h219c8 0 15 -4 20 -9l78 -78c7 -7 11 -16 11 -25s-4 -18 -11 -25l-235 -235
l-63 62l220 220h-258c-13 0 -23 -10 -23 -22v-281c0 -12 10 -22 23 -22h324z" />
    <glyph glyph-name="gbreve" unicode="&#x11f;" horiz-adv-x="597" 
d="M316 564h-35c-15 0 -29 6 -39 16l-68 68c-11 11 -16 25 -16 40h91v-22c0 -12 10 -22 23 -22h53c13 0 23 10 23 22v22h91c0 -15 -5 -29 -16 -40l-68 -68c-10 -10 -24 -16 -39 -16zM419 -200h-309v90h328c13 0 23 10 23 22v481c0 12 -10 22 -23 22h-279
c-13 0 -23 -10 -23 -22v-303l219 219l63 -62l-236 -236c-7 -7 -16 -11 -25 -11s-18 4 -25 11l-78 78c-5 5 -9 12 -9 20v262c0 15 5 29 16 40l78 78c10 10 24 16 39 16h241c15 0 29 -6 39 -16l78 -78c11 -11 16 -25 16 -40v-437c0 -15 -5 -29 -16 -40l-78 -78
c-10 -10 -24 -16 -39 -16z" />
    <glyph glyph-name="gcircumflex" unicode="&#x11d;" horiz-adv-x="597" 
d="M280 619l-64 -65l-63 62l47 46c9 9 12 11 20 11h160c8 0 12 -2 20 -10l46 -46l-62 -62l-63 64c-12 13 -29 13 -41 0zM419 -200h-309v90h328c13 0 23 10 23 22v481c0 12 -10 22 -23 22h-279c-13 0 -23 -10 -23 -22v-303l219 219l63 -62l-236 -236c-7 -7 -16 -11 -25 -11
s-18 4 -25 11l-78 78c-5 5 -9 12 -9 20v262c0 15 5 29 16 40l78 78c10 10 24 16 39 16h241c15 0 29 -6 39 -16l78 -78c11 -11 16 -25 16 -40v-437c0 -15 -5 -29 -16 -40l-78 -78c-10 -10 -24 -16 -39 -16z" />
    <glyph glyph-name="uni0123" unicode="&#x123;" horiz-adv-x="597" 
d="M341 627v-65h-91v80c0 12 4 23 13 32l67 67l62 -63zM419 -200h-309v90h328c13 0 23 10 23 22v481c0 12 -10 22 -23 22h-279c-13 0 -23 -10 -23 -22v-303l219 219l63 -62l-236 -236c-7 -7 -16 -11 -25 -11s-18 4 -25 11l-78 78c-5 5 -9 12 -9 20v262c0 15 5 29 16 40
l78 78c10 10 24 16 39 16h241c15 0 29 -6 39 -16l78 -78c11 -11 16 -25 16 -40v-437c0 -15 -5 -29 -16 -40l-78 -78c-10 -10 -24 -16 -39 -16z" />
    <glyph glyph-name="gdotaccent" unicode="&#x121;" horiz-adv-x="597" 
d="M339 569h-96v96h96v-96zM419 -200h-309v90h328c13 0 23 10 23 22v481c0 12 -10 22 -23 22h-279c-13 0 -23 -10 -23 -22v-303l219 219l63 -62l-236 -236c-7 -7 -16 -11 -25 -11s-18 4 -25 11l-78 78c-5 5 -9 12 -9 20v262c0 15 5 29 16 40l78 78c10 10 24 16 39 16h241
c15 0 29 -6 39 -16l78 -78c11 -11 16 -25 16 -40v-437c0 -15 -5 -29 -16 -40l-78 -78c-10 -10 -24 -16 -39 -16z" />
    <glyph glyph-name="hbar" unicode="&#x127;" horiz-adv-x="593" 
d="M14 649h59v51h91v-700h-91v559h-59v90zM363 559h-88c-8 0 -14 2 -20 8l-82 82h190v-90zM461 494l78 -78c5 -5 9 -12 9 -20v-396h-91v415l-207 -207l-63 62l224 224c7 7 16 11 25 11s18 -4 25 -11z" />
    <glyph glyph-name="hcircumflex" unicode="&#x125;" horiz-adv-x="565" 
d="M72 794l-64 -65l-63 62l47 46c9 9 12 11 20 11h160c8 0 12 -2 20 -10l46 -46l-62 -62l-63 64c-12 13 -29 13 -41 0zM136 0h-91v700h91v-700zM520 0h-91v415l-207 -207l-63 62l224 224c7 7 16 11 25 11s18 -4 25 -11l78 -78c5 -5 9 -12 9 -20v-396z" />
    <glyph glyph-name="dotlessi" unicode="&#x131;" 
d="M136 0h-91v505l79 -79c8 -8 12 -19 12 -30v-396z" />
    <glyph glyph-name="iacute" unicode="&#xed;" 
d="M147 565h-110l101 106h110zM136 0h-91v505l79 -79c8 -8 12 -19 12 -30v-396z" />
    <glyph glyph-name="ibreve" unicode="&#x12d;" 
d="M108 564h-35c-15 0 -29 6 -39 16l-68 68c-11 11 -16 25 -16 40h91v-22c0 -12 10 -22 23 -22h53c13 0 23 10 23 22v22h91c0 -15 -5 -29 -16 -40l-68 -68c-10 -10 -24 -16 -39 -16zM136 0h-91v505l79 -79c8 -8 12 -19 12 -30v-396z" />
    <glyph glyph-name="icircumflex" unicode="&#xee;" 
d="M72 619l-64 -65l-63 62l47 46c9 9 12 11 20 11h160c8 0 12 -2 20 -10l46 -46l-62 -62l-63 64c-12 13 -29 13 -41 0zM136 0h-91v505l79 -79c8 -8 12 -19 12 -30v-396z" />
    <glyph glyph-name="idieresis" unicode="&#xef;" 
d="M49 569h-96v96h96v-96zM230 569h-96v96h96v-96zM136 0h-91v505l79 -79c8 -8 12 -19 12 -30v-396z" />
    <glyph glyph-name="igrave" unicode="&#xec;" 
d="M144 565h-110l-101 106h110zM136 0h-91v505l79 -79c8 -8 12 -19 12 -30v-396z" />
    <glyph glyph-name="ij" unicode="&#x133;" horiz-adv-x="362" 
d="M129 700v-157l-79 80c-8 7 -12 19 -12 30v47h91zM310 700v-157l-79 80c-8 7 -12 19 -12 30v47h91zM136 0h-91v505l79 -79c8 -8 12 -19 12 -30v-396zM184 -200h-129v90h148c13 0 23 10 23 22v593l79 -79c8 -8 12 -19 12 -30v-462c0 -15 -5 -29 -16 -40l-78 -78
c-10 -10 -24 -16 -39 -16z" />
    <glyph glyph-name="imacron" unicode="&#x12b;" 
d="M227 577h-273v80h273v-80zM136 0h-91v505l79 -79c8 -8 12 -19 12 -30v-396z" />
    <glyph glyph-name="iogonek" unicode="&#x12f;" 
d="M129 543l-79 80c-8 7 -12 19 -12 30v47h91v-157zM136 0l-109 -109h130v-90h-156c-19 0 -33 14 -33 33v104c0 7 3 14 8 19l69 69v479l79 -79c8 -8 12 -19 12 -30v-396z" />
    <glyph glyph-name="itilde" unicode="&#x129;" 
d="M144 562h-7c-8 0 -13 1 -19 7l-22 22c-12 12 -17 15 -26 15c-6 0 -11 -1 -16 -6l-44 -44l-63 63l63 62c6 6 11 7 18 7h7c8 0 13 -1 19 -7l22 -22c12 -12 17 -15 26 -15c6 0 11 1 17 7l43 43l63 -63l-63 -62c-6 -6 -11 -7 -18 -7zM136 0h-91v505l79 -79
c8 -8 12 -19 12 -30v-396z" />
    <glyph glyph-name="uni0237" unicode="&#x237;" 
d="M3 -200h-129v90h148c13 0 23 10 23 22v593l79 -79c8 -8 12 -19 12 -30v-462c0 -15 -5 -29 -16 -40l-78 -78c-10 -10 -24 -16 -39 -16z" />
    <glyph glyph-name="jcircumflex" unicode="&#x135;" 
d="M72 619l-64 -65l-63 62l47 46c9 9 12 11 20 11h160c8 0 12 -2 20 -10l46 -46l-62 -62l-63 64c-12 13 -29 13 -41 0zM3 -200h-129v90h148c13 0 23 10 23 22v593l79 -79c8 -8 12 -19 12 -30v-462c0 -15 -5 -29 -16 -40l-78 -78c-10 -10 -24 -16 -39 -16z" />
    <glyph glyph-name="uni0137" unicode="&#x137;" horiz-adv-x="555" 
d="M136 0h-91v700h91v-700zM520 0h-91v106c0 12 -10 22 -23 22h-56l-62 -1c-8 0 -15 4 -20 9l-78 78c-7 7 -11 16 -11 25s4 18 11 25l241 240l62 -63l-224 -223h118c15 0 29 -6 39 -16l78 -78c11 -11 16 -25 16 -40v-84zM232 -129v65h91v-80c0 -12 -4 -23 -13 -32l-67 -67
l-62 63z" />
    <glyph glyph-name="kgreenlandic" unicode="&#x138;" horiz-adv-x="555" 
d="M136 0h-91v505h91v-505zM520 0h-91v106c0 12 -10 22 -23 22h-56l-62 -1c-8 0 -15 4 -20 9l-78 78c-7 7 -11 16 -11 25s4 18 11 25l241 240l62 -63l-224 -223h118c15 0 29 -6 39 -16l78 -78c11 -11 16 -25 16 -40v-84z" />
    <glyph glyph-name="lacute" unicode="&#x13a;" horiz-adv-x="283" 
d="M147 760h-110l101 106h110zM258 0h-80c-15 0 -29 6 -39 16l-78 78c-11 11 -16 25 -16 40v566h91v-588c0 -12 10 -22 23 -22h99v-90z" />
    <glyph glyph-name="lcaron" unicode="&#x13e;" horiz-adv-x="283" 
d="M258 0h-80c-15 0 -29 6 -39 16l-78 78c-11 11 -16 25 -16 40v566h91v-588c0 -12 10 -22 23 -22h99v-90zM265 554h-80v146h90z" />
    <glyph glyph-name="uni013C" unicode="&#x13c;" horiz-adv-x="283" 
d="M258 0h-80c-15 0 -29 6 -39 16l-78 78c-11 11 -16 25 -16 40v566h91v-588c0 -12 10 -22 23 -22h99v-90zM104 -129v65h91v-80c0 -12 -4 -23 -13 -32l-67 -67l-62 63z" />
    <glyph glyph-name="ldot" unicode="&#x140;" horiz-adv-x="283" 
d="M258 0h-80c-15 0 -29 6 -39 16l-78 78c-11 11 -16 25 -16 40v566h91v-588c0 -12 10 -22 23 -22h99v-90zM297 335h-99v98h99v-98z" />
    <glyph glyph-name="lslash" unicode="&#x142;" horiz-adv-x="343" 
d="M182 319v-207c0 -12 10 -22 23 -22h99v-90h-80c-15 0 -29 6 -39 16l-78 78c-11 11 -16 25 -16 40v94l-36 -36l-60 60l96 96v352h91v-262l68 68l60 -60z" />
    <glyph glyph-name="nacute" unicode="&#x144;" horiz-adv-x="565" 
d="M339 565h-110l101 106h110zM136 0h-91v505h91v-505zM520 0h-91v415l-207 -207l-63 62l224 224c7 7 16 11 25 11s18 -4 25 -11l78 -78c5 -5 9 -12 9 -20v-396z" />
    <glyph glyph-name="napostrophe" unicode="&#x149;" horiz-adv-x="778" 
d="M77 572v128h91v-143c0 -12 -4 -23 -13 -32l-77 -77l-62 63zM349 0h-91v505h91v-505zM733 0h-91v415l-207 -207l-63 62l224 224c7 7 16 11 25 11s18 -4 25 -11l78 -78c5 -5 9 -12 9 -20v-396z" />
    <glyph glyph-name="ncaron" unicode="&#x148;" horiz-adv-x="565" 
d="M135 621l63 62l64 -65c12 -13 29 -13 41 0l63 64l62 -62l-46 -46c-8 -8 -12 -10 -20 -10h-160c-8 0 -11 2 -20 11zM136 0h-91v505h91v-505zM520 0h-91v415l-207 -207l-63 62l224 224c7 7 16 11 25 11s18 -4 25 -11l78 -78c5 -5 9 -12 9 -20v-396z" />
    <glyph glyph-name="uni0146" unicode="&#x146;" horiz-adv-x="565" 
d="M136 0h-91v505h91v-505zM520 0h-91v415l-207 -207l-63 62l224 224c7 7 16 11 25 11s18 -4 25 -11l78 -78c5 -5 9 -12 9 -20v-396zM237 -129v65h91v-80c0 -12 -4 -23 -13 -32l-67 -67l-62 63z" />
    <glyph glyph-name="eng" unicode="&#x14b;" horiz-adv-x="565" 
d="M136 0h-91v505h91v-505zM433 494l78 -78c5 -5 9 -12 9 -20v-462c0 -15 -5 -29 -16 -40l-78 -78c-10 -10 -24 -16 -39 -16h-129v90h148c13 0 23 10 23 22v503l-207 -207l-63 62l224 224c7 7 16 11 25 11s18 -4 25 -11z" />
    <glyph glyph-name="ntilde" unicode="&#xf1;" horiz-adv-x="565" 
d="M336 562h-7c-8 0 -13 1 -19 7l-22 22c-12 12 -17 15 -26 15c-6 0 -11 -1 -16 -6l-44 -44l-63 63l63 62c6 6 11 7 18 7h7c8 0 13 -1 19 -7l22 -22c12 -12 17 -15 26 -15c6 0 11 1 17 7l43 43l63 -63l-63 -62c-6 -6 -11 -7 -18 -7zM136 0h-91v505h91v-505zM520 0h-91v415
l-207 -207l-63 62l224 224c7 7 16 11 25 11s18 -4 25 -11l78 -78c5 -5 9 -12 9 -20v-396z" />
    <glyph glyph-name="oacute" unicode="&#xf3;" horiz-adv-x="570" 
d="M341 565h-110l101 106h110zM392 0h-214c-15 0 -29 6 -39 16l-78 78c-11 11 -16 25 -16 40v237c0 15 5 29 16 40l78 78c10 10 24 16 39 16h214c15 0 29 -6 39 -16l78 -78c11 -11 16 -25 16 -40v-237c0 -15 -5 -29 -16 -40l-78 -78c-10 -10 -24 -16 -39 -16zM159 90h252
c13 0 23 10 23 22v281c0 12 -10 22 -23 22h-252c-13 0 -23 -10 -23 -22v-281c0 -12 10 -22 23 -22z" />
    <glyph glyph-name="obreve" unicode="&#x14f;" horiz-adv-x="570" 
d="M302 564h-35c-15 0 -29 6 -39 16l-68 68c-11 11 -16 25 -16 40h91v-22c0 -12 10 -22 23 -22h53c13 0 23 10 23 22v22h91c0 -15 -5 -29 -16 -40l-68 -68c-10 -10 -24 -16 -39 -16zM392 0h-214c-15 0 -29 6 -39 16l-78 78c-11 11 -16 25 -16 40v237c0 15 5 29 16 40l78 78
c10 10 24 16 39 16h214c15 0 29 -6 39 -16l78 -78c11 -11 16 -25 16 -40v-237c0 -15 -5 -29 -16 -40l-78 -78c-10 -10 -24 -16 -39 -16zM159 90h252c13 0 23 10 23 22v281c0 12 -10 22 -23 22h-252c-13 0 -23 -10 -23 -22v-281c0 -12 10 -22 23 -22z" />
    <glyph glyph-name="ocircumflex" unicode="&#xf4;" horiz-adv-x="570" 
d="M266 619l-64 -65l-63 62l47 46c9 9 12 11 20 11h160c8 0 12 -2 20 -10l46 -46l-62 -62l-63 64c-12 13 -29 13 -41 0zM392 0h-214c-15 0 -29 6 -39 16l-78 78c-11 11 -16 25 -16 40v237c0 15 5 29 16 40l78 78c10 10 24 16 39 16h214c15 0 29 -6 39 -16l78 -78
c11 -11 16 -25 16 -40v-237c0 -15 -5 -29 -16 -40l-78 -78c-10 -10 -24 -16 -39 -16zM159 90h252c13 0 23 10 23 22v281c0 12 -10 22 -23 22h-252c-13 0 -23 -10 -23 -22v-281c0 -12 10 -22 23 -22z" />
    <glyph glyph-name="odieresis" unicode="&#xf6;" horiz-adv-x="570" 
d="M243 569h-96v96h96v-96zM424 569h-96v96h96v-96zM392 0h-214c-15 0 -29 6 -39 16l-78 78c-11 11 -16 25 -16 40v237c0 15 5 29 16 40l78 78c10 10 24 16 39 16h214c15 0 29 -6 39 -16l78 -78c11 -11 16 -25 16 -40v-237c0 -15 -5 -29 -16 -40l-78 -78
c-10 -10 -24 -16 -39 -16zM159 90h252c13 0 23 10 23 22v281c0 12 -10 22 -23 22h-252c-13 0 -23 -10 -23 -22v-281c0 -12 10 -22 23 -22z" />
    <glyph glyph-name="ograve" unicode="&#xf2;" horiz-adv-x="570" 
d="M338 565h-110l-101 106h110zM392 0h-214c-15 0 -29 6 -39 16l-78 78c-11 11 -16 25 -16 40v237c0 15 5 29 16 40l78 78c10 10 24 16 39 16h214c15 0 29 -6 39 -16l78 -78c11 -11 16 -25 16 -40v-237c0 -15 -5 -29 -16 -40l-78 -78c-10 -10 -24 -16 -39 -16zM159 90h252
c13 0 23 10 23 22v281c0 12 -10 22 -23 22h-252c-13 0 -23 -10 -23 -22v-281c0 -12 10 -22 23 -22z" />
    <glyph glyph-name="ohungarumlaut" unicode="&#x151;" horiz-adv-x="570" 
d="M526 672l-101 -106h-110l101 106h110zM346 671l-101 -106h-110l101 106h110zM392 0h-214c-15 0 -29 6 -39 16l-78 78c-11 11 -16 25 -16 40v237c0 15 5 29 16 40l78 78c10 10 24 16 39 16h214c15 0 29 -6 39 -16l78 -78c11 -11 16 -25 16 -40v-237c0 -15 -5 -29 -16 -40
l-78 -78c-10 -10 -24 -16 -39 -16zM159 90h252c13 0 23 10 23 22v281c0 12 -10 22 -23 22h-252c-13 0 -23 -10 -23 -22v-281c0 -12 10 -22 23 -22z" />
    <glyph glyph-name="omacron" unicode="&#x14d;" horiz-adv-x="570" 
d="M421 577h-273v80h273v-80zM392 0h-214c-15 0 -29 6 -39 16l-78 78c-11 11 -16 25 -16 40v237c0 15 5 29 16 40l78 78c10 10 24 16 39 16h214c15 0 29 -6 39 -16l78 -78c11 -11 16 -25 16 -40v-237c0 -15 -5 -29 -16 -40l-78 -78c-10 -10 -24 -16 -39 -16zM159 90h252
c13 0 23 10 23 22v281c0 12 -10 22 -23 22h-252c-13 0 -23 -10 -23 -22v-281c0 -12 10 -22 23 -22z" />
    <glyph glyph-name="oslash" unicode="&#xf8;" horiz-adv-x="580" 
d="M556 454l-38 -38l5 -5c11 -11 16 -25 16 -40v-237c0 -15 -5 -29 -16 -40l-78 -78c-10 -10 -24 -16 -39 -16h-214c-15 0 -29 6 -39 16l-15 15l-38 -39l-59 59l38 39l-4 4c-11 11 -16 25 -16 40v237c0 15 5 29 16 40l78 78c10 10 24 16 39 16h214c15 0 29 -6 39 -16l14 -14
l38 38zM150 393v-232l250 254h-227c-13 0 -23 -10 -23 -22zM197 90h228c13 0 23 10 23 22v233z" />
    <glyph glyph-name="otilde" unicode="&#xf5;" horiz-adv-x="570" 
d="M338 562h-7c-8 0 -13 1 -19 7l-22 22c-12 12 -17 15 -26 15c-6 0 -11 -1 -16 -6l-44 -44l-63 63l63 62c6 6 11 7 18 7h7c8 0 13 -1 19 -7l22 -22c12 -12 17 -15 26 -15c6 0 11 1 17 7l43 43l63 -63l-63 -62c-6 -6 -11 -7 -18 -7zM392 0h-214c-15 0 -29 6 -39 16l-78 78
c-11 11 -16 25 -16 40v237c0 15 5 29 16 40l78 78c10 10 24 16 39 16h214c15 0 29 -6 39 -16l78 -78c11 -11 16 -25 16 -40v-237c0 -15 -5 -29 -16 -40l-78 -78c-10 -10 -24 -16 -39 -16zM159 90h252c13 0 23 10 23 22v281c0 12 -10 22 -23 22h-252c-13 0 -23 -10 -23 -22
v-281c0 -12 10 -22 23 -22z" />
    <glyph glyph-name="oe" unicode="&#x153;" horiz-adv-x="920" 
d="M884 368l-235 -235l-63 62l220 220h-258c-13 0 -23 -10 -23 -22v-281c0 -12 10 -22 23 -22h324v-90h-305c-15 0 -29 6 -39 16l-48 49l-49 -49c-10 -10 -24 -16 -39 -16h-214c-15 0 -29 6 -39 16l-78 78c-11 11 -16 25 -16 40v237c0 15 5 29 16 40l78 78
c10 10 24 16 39 16h214c15 0 29 -6 39 -16l49 -48l48 48c10 10 24 16 39 16h219c8 0 15 -4 20 -9l78 -78c7 -7 11 -16 11 -25s-4 -18 -11 -25zM434 112v281c0 12 -10 22 -23 22h-252c-13 0 -23 -10 -23 -22v-281c0 -12 10 -22 23 -22h252c13 0 23 10 23 22z" />
    <glyph glyph-name="thorn" unicode="&#xfe;" horiz-adv-x="587" 
d="M455 494l78 -78c5 -5 9 -12 9 -20v-262c0 -15 -5 -29 -16 -40l-78 -78c-10 -10 -24 -16 -39 -16h-183l-89 89l-1 -289h-91l2 900h91l-1 -610h291c13 0 23 10 23 22v303l-219 -219l-63 62l236 236c7 7 16 11 25 11s18 -4 25 -11z" />
    <glyph glyph-name="racute" unicode="&#x155;" horiz-adv-x="445" 
d="M316 565h-110l101 106h110zM136 0h-91v371c0 15 5 29 16 40l78 78c10 10 24 16 39 16h242v-90h-261c-13 0 -23 -10 -23 -22v-393z" />
    <glyph glyph-name="rcaron" unicode="&#x159;" horiz-adv-x="445" 
d="M112 621l63 62l64 -65c12 -13 29 -13 41 0l63 64l62 -62l-46 -46c-8 -8 -12 -10 -20 -10h-160c-8 0 -11 2 -20 11zM136 0h-91v371c0 15 5 29 16 40l78 78c10 10 24 16 39 16h242v-90h-261c-13 0 -23 -10 -23 -22v-393z" />
    <glyph glyph-name="uni0157" unicode="&#x157;" horiz-adv-x="445" 
d="M136 0h-91v371c0 15 5 29 16 40l78 78c10 10 24 16 39 16h242v-90h-261c-13 0 -23 -10 -23 -22v-393zM45 -129v65h91v-80c0 -12 -4 -23 -13 -32l-67 -67l-62 63z" />
    <glyph glyph-name="sacute" unicode="&#x15b;" horiz-adv-x="518" 
d="M306 671h110l-101 -106h-110zM75 505h408v-90h-387l163 -163l-62 -62l-147 147c-6 6 -10 15 -10 24v113c0 8 4 16 10 21c6 6 15 10 25 10zM35 0v90h386l-162 162l62 62l147 -147c6 -6 10 -15 10 -24v-112c0 -8 -4 -16 -10 -21c-6 -6 -15 -10 -25 -10h-408z" />
    <glyph glyph-name="scaron" unicode="&#x161;" horiz-adv-x="518" 
d="M338 564h-160c-8 0 -11 2 -20 11l-47 46l63 62l64 -65c12 -13 29 -13 41 0l63 64l62 -62l-46 -46c-8 -8 -12 -10 -20 -10zM75 505h408v-90h-387l163 -163l-62 -62l-147 147c-6 6 -10 15 -10 24v113c0 8 4 16 10 21c6 6 15 10 25 10zM35 0v90h386l-162 162l62 62l147 -147
c6 -6 10 -15 10 -24v-112c0 -8 -4 -16 -10 -21c-6 -6 -15 -10 -25 -10h-408z" />
    <glyph glyph-name="scedilla" unicode="&#x15f;" horiz-adv-x="518" 
d="M75 505h408v-90h-387l163 -163l-62 -62l-147 147c-6 6 -10 15 -10 24v113c0 8 4 16 10 21c6 6 15 10 25 10zM35 0v90h386l-162 162l62 62l147 -147c6 -6 10 -15 10 -24v-112c0 -8 -4 -16 -10 -21c-6 -6 -15 -10 -25 -10h-139v-19c0 -9 -1 -14 -7 -19l-116 -115
c-7 -6 -12 -8 -19 -8h-58v90h81c18 0 28 10 28 28v43h-178z" />
    <glyph glyph-name="scircumflex" unicode="&#x15d;" horiz-adv-x="518" 
d="M240 619l-64 -65l-63 62l47 46c9 9 12 11 20 11h160c8 0 12 -2 20 -10l46 -46l-62 -62l-63 64c-12 13 -29 13 -41 0zM75 505h408v-90h-387l163 -163l-62 -62l-147 147c-6 6 -10 15 -10 24v113c0 8 4 16 10 21c6 6 15 10 25 10zM35 0v90h386l-162 162l62 62l147 -147
c6 -6 10 -15 10 -24v-112c0 -8 -4 -16 -10 -21c-6 -6 -15 -10 -25 -10h-408z" />
    <glyph glyph-name="uni0219" unicode="&#x219;" horiz-adv-x="518" 
d="M75 505h408v-90h-387l163 -163l-62 -62l-147 147c-6 6 -10 15 -10 24v113c0 8 4 16 10 21c6 6 15 10 25 10zM35 0v90h386l-162 162l62 62l147 -147c6 -6 10 -15 10 -24v-112c0 -8 -4 -16 -10 -21c-6 -6 -15 -10 -25 -10h-408zM162 -180l51 51v65h91v-80
c0 -12 -4 -23 -13 -32l-67 -67z" />
    <glyph glyph-name="germandbls" unicode="&#xdf;" horiz-adv-x="626" 
d="M543 564l-207 -207h117c15 0 29 -6 39 -16l78 -78c11 -11 16 -25 16 -40v-89c0 -15 -5 -29 -16 -40l-78 -78c-10 -10 -24 -16 -39 -16h-216l-90 90h325c13 0 23 10 23 22v133c0 12 -10 22 -23 22h-117c-8 0 -15 4 -20 9l-78 77c-7 7 -11 16 -11 25s4 18 11 25l207 207
h-305c-13 0 -23 -10 -23 -22v-588h-91v566c0 15 5 29 16 40l78 78c10 10 24 16 39 16h267c8 0 15 -4 20 -9l78 -77c7 -7 11 -16 11 -25s-4 -18 -11 -25z" />
    <glyph glyph-name="tbar" unicode="&#x167;" horiz-adv-x="440" 
d="M172 498h234v-90h-223c-15 0 -21 6 -31 16l-78 78c-11 11 -16 25 -16 40v109h91v-131c0 -12 10 -22 23 -22zM149 112c0 -12 10 -22 23 -22h234v-90h-215c-15 0 -29 6 -39 16l-78 78c-11 11 -16 25 -16 40v89h-58v90h58v80h91v-281zM346 223h-88c-8 0 -14 2 -20 8l-82 82
h190v-90z" />
    <glyph glyph-name="tcaron" unicode="&#x165;" horiz-adv-x="427" 
d="M292 554h-80v146h90zM393 408h-223c-15 0 -21 6 -31 16l-78 78c-11 11 -16 25 -16 40v109h91v-131c0 -12 10 -22 23 -22h234v-90zM157 0c-9 0 -18 4 -25 11l-78 78c-5 5 -9 12 -9 20v284h91v-303l203 203l63 -62l-220 -220c-7 -7 -16 -11 -25 -11z" />
    <glyph glyph-name="uni0163" unicode="&#x163;" horiz-adv-x="427" 
d="M139 424l-78 78c-11 11 -16 25 -16 40v109h91v-131c0 -12 10 -22 23 -22h234v-90h-223c-15 0 -21 6 -31 16zM339 293l63 -62l-200 -200v-50c0 -9 -1 -14 -7 -19l-116 -115c-7 -6 -12 -8 -19 -8h-58v90h81c18 0 28 10 28 28v75l-57 57c-5 5 -9 12 -9 20v284h91v-303z" />
    <glyph glyph-name="uni021B" unicode="&#x21b;" horiz-adv-x="427" 
d="M393 408h-223c-15 0 -21 6 -31 16l-78 78c-11 11 -16 25 -16 40v109h91v-131c0 -12 10 -22 23 -22h234v-90zM157 0c-9 0 -18 4 -25 11l-78 78c-5 5 -9 12 -9 20v284h91v-303l203 203l63 -62l-220 -220c-7 -7 -16 -11 -25 -11zM111 -129v65h91v-80c0 -12 -4 -23 -13 -32
l-67 -67l-62 63z" />
    <glyph glyph-name="uacute" unicode="&#xfa;" horiz-adv-x="561" 
d="M337 565h-110l101 106h110zM157 0c-9 0 -18 4 -25 11l-78 78c-5 5 -9 12 -9 20v396h91v-415l203 203l63 -62l-220 -220c-7 -7 -16 -11 -25 -11zM516 0h-91v505h91v-505z" />
    <glyph glyph-name="ubreve" unicode="&#x16d;" horiz-adv-x="561" 
d="M298 564h-35c-15 0 -29 6 -39 16l-68 68c-11 11 -16 25 -16 40h91v-22c0 -12 10 -22 23 -22h53c13 0 23 10 23 22v22h91c0 -15 -5 -29 -16 -40l-68 -68c-10 -10 -24 -16 -39 -16zM157 0c-9 0 -18 4 -25 11l-78 78c-5 5 -9 12 -9 20v396h91v-415l203 203l63 -62l-220 -220
c-7 -7 -16 -11 -25 -11zM516 0h-91v505h91v-505z" />
    <glyph glyph-name="ucircumflex" unicode="&#xfb;" horiz-adv-x="561" 
d="M262 619l-64 -65l-63 62l47 46c9 9 12 11 20 11h160c8 0 12 -2 20 -10l46 -46l-62 -62l-63 64c-12 13 -29 13 -41 0zM157 0c-9 0 -18 4 -25 11l-78 78c-5 5 -9 12 -9 20v396h91v-415l203 203l63 -62l-220 -220c-7 -7 -16 -11 -25 -11zM516 0h-91v505h91v-505z" />
    <glyph glyph-name="udieresis" unicode="&#xfc;" horiz-adv-x="561" 
d="M239 569h-96v96h96v-96zM420 569h-96v96h96v-96zM157 0c-9 0 -18 4 -25 11l-78 78c-5 5 -9 12 -9 20v396h91v-415l203 203l63 -62l-220 -220c-7 -7 -16 -11 -25 -11zM516 0h-91v505h91v-505z" />
    <glyph glyph-name="ugrave" unicode="&#xf9;" horiz-adv-x="561" 
d="M334 565h-110l-101 106h110zM157 0c-9 0 -18 4 -25 11l-78 78c-5 5 -9 12 -9 20v396h91v-415l203 203l63 -62l-220 -220c-7 -7 -16 -11 -25 -11zM516 0h-91v505h91v-505z" />
    <glyph glyph-name="uhungarumlaut" unicode="&#x171;" horiz-adv-x="561" 
d="M522 672l-101 -106h-110l101 106h110zM342 671l-101 -106h-110l101 106h110zM157 0c-9 0 -18 4 -25 11l-78 78c-5 5 -9 12 -9 20v396h91v-415l203 203l63 -62l-220 -220c-7 -7 -16 -11 -25 -11zM516 0h-91v505h91v-505z" />
    <glyph glyph-name="umacron" unicode="&#x16b;" horiz-adv-x="561" 
d="M417 577h-273v80h273v-80zM157 0c-9 0 -18 4 -25 11l-78 78c-5 5 -9 12 -9 20v396h91v-415l203 203l63 -62l-220 -220c-7 -7 -16 -11 -25 -11zM516 0h-91v505h91v-505z" />
    <glyph glyph-name="uogonek" unicode="&#x173;" horiz-adv-x="561" 
d="M136 90l203 203l63 -62l-220 -220c-7 -7 -16 -11 -25 -11s-18 4 -25 11l-78 78c-5 5 -9 12 -9 20v396h91v-415zM516 0l-109 -109h130v-90h-156c-19 0 -33 14 -33 33v104c0 7 3 14 8 19l69 69v479h91v-505z" />
    <glyph glyph-name="uring" unicode="&#x16f;" horiz-adv-x="561" 
d="M271 539l-97 97c-7 6 -6 16 0 22l95 95c6 6 16 7 22 0l97 -97c7 -6 6 -16 0 -22l-95 -95c-6 -6 -16 -7 -22 0zM254 660v-28c0 -7 6 -13 13 -13h28c9 0 13 4 13 13v28c0 7 -6 13 -13 13h-28c-9 0 -13 -4 -13 -13zM157 0c-9 0 -18 4 -25 11l-78 78c-5 5 -9 12 -9 20v396h91
v-415l203 203l63 -62l-220 -220c-7 -7 -16 -11 -25 -11zM516 0h-91v505h91v-505z" />
    <glyph glyph-name="utilde" unicode="&#x169;" horiz-adv-x="561" 
d="M334 562h-7c-8 0 -13 1 -19 7l-22 22c-12 12 -17 15 -26 15c-6 0 -11 -1 -16 -6l-44 -44l-63 63l63 62c6 6 11 7 18 7h7c8 0 13 -1 19 -7l22 -22c12 -12 17 -15 26 -15c6 0 11 1 17 7l43 43l63 -63l-63 -62c-6 -6 -11 -7 -18 -7zM157 0c-9 0 -18 4 -25 11l-78 78
c-5 5 -9 12 -9 20v396h91v-415l203 203l63 -62l-220 -220c-7 -7 -16 -11 -25 -11zM516 0h-91v505h91v-505z" />
    <glyph glyph-name="wacute" unicode="&#x1e83;" horiz-adv-x="764" 
d="M438 565h-110l101 106h110zM157 0c-9 0 -18 4 -25 11l-78 78c-5 5 -9 12 -9 20v396h91v-415l119 118l63 -62l-136 -135c-7 -7 -16 -11 -25 -11zM453 0c-9 0 -18 4 -25 11l-78 78c-5 5 -9 12 -9 20v396h91v-415l206 205v210h91v-222c0 -14 -6 -27 -15 -36l-236 -236
c-7 -7 -16 -11 -25 -11z" />
    <glyph glyph-name="wcircumflex" unicode="&#x175;" horiz-adv-x="764" 
d="M363 619l-64 -65l-63 62l47 46c9 9 12 11 20 11h160c8 0 12 -2 20 -10l46 -46l-62 -62l-63 64c-12 13 -29 13 -41 0zM157 0c-9 0 -18 4 -25 11l-78 78c-5 5 -9 12 -9 20v396h91v-415l119 118l63 -62l-136 -135c-7 -7 -16 -11 -25 -11zM453 0c-9 0 -18 4 -25 11l-78 78
c-5 5 -9 12 -9 20v396h91v-415l206 205v210h91v-222c0 -14 -6 -27 -15 -36l-236 -236c-7 -7 -16 -11 -25 -11z" />
    <glyph glyph-name="wdieresis" unicode="&#x1e85;" horiz-adv-x="764" 
d="M340 569h-96v96h96v-96zM521 569h-96v96h96v-96zM157 0c-9 0 -18 4 -25 11l-78 78c-5 5 -9 12 -9 20v396h91v-415l119 118l63 -62l-136 -135c-7 -7 -16 -11 -25 -11zM453 0c-9 0 -18 4 -25 11l-78 78c-5 5 -9 12 -9 20v396h91v-415l206 205v210h91v-222
c0 -14 -6 -27 -15 -36l-236 -236c-7 -7 -16 -11 -25 -11z" />
    <glyph glyph-name="wgrave" unicode="&#x1e81;" horiz-adv-x="764" 
d="M435 565h-110l-101 106h110zM157 0c-9 0 -18 4 -25 11l-78 78c-5 5 -9 12 -9 20v396h91v-415l119 118l63 -62l-136 -135c-7 -7 -16 -11 -25 -11zM453 0c-9 0 -18 4 -25 11l-78 78c-5 5 -9 12 -9 20v396h91v-415l206 205v210h91v-222c0 -14 -6 -27 -15 -36l-236 -236
c-7 -7 -16 -11 -25 -11z" />
    <glyph glyph-name="yacute" unicode="&#xfd;" horiz-adv-x="561" 
d="M328 671h110l-101 -106h-110zM157 0c-9 0 -18 4 -25 11l-78 78c-5 5 -9 12 -9 20v396h91v-415l203 203l63 -62l-220 -220c-7 -7 -16 -11 -25 -11zM425 505h91v-571c0 -15 -5 -29 -16 -40l-78 -78c-10 -10 -24 -16 -39 -16h-301v90h319c13 0 24 10 24 22v593z" />
    <glyph glyph-name="ycircumflex" unicode="&#x177;" horiz-adv-x="561" 
d="M262 619l-64 -65l-63 62l47 46c9 9 12 11 20 11h160c8 0 12 -2 20 -10l46 -46l-62 -62l-63 64c-12 13 -29 13 -41 0zM157 0c-9 0 -18 4 -25 11l-78 78c-5 5 -9 12 -9 20v396h91v-415l203 203l63 -62l-220 -220c-7 -7 -16 -11 -25 -11zM425 505h91v-571
c0 -15 -5 -29 -16 -40l-78 -78c-10 -10 -24 -16 -39 -16h-301v90h319c13 0 24 10 24 22v593z" />
    <glyph glyph-name="ydieresis" unicode="&#xff;" horiz-adv-x="561" 
d="M143 665h96v-96h-96v96zM324 665h96v-96h-96v96zM157 0c-9 0 -18 4 -25 11l-78 78c-5 5 -9 12 -9 20v396h91v-415l203 203l63 -62l-220 -220c-7 -7 -16 -11 -25 -11zM425 505h91v-571c0 -15 -5 -29 -16 -40l-78 -78c-10 -10 -24 -16 -39 -16h-301v90h319
c13 0 24 10 24 22v593z" />
    <glyph glyph-name="ygrave" unicode="&#x1ef3;" horiz-adv-x="561" 
d="M233 671l101 -106h-110l-101 106h110zM157 0c-9 0 -18 4 -25 11l-78 78c-5 5 -9 12 -9 20v396h91v-415l203 203l63 -62l-220 -220c-7 -7 -16 -11 -25 -11zM425 505h91v-571c0 -15 -5 -29 -16 -40l-78 -78c-10 -10 -24 -16 -39 -16h-301v90h319c13 0 24 10 24 22v593z" />
    <glyph glyph-name="zacute" unicode="&#x17a;" horiz-adv-x="518" 
d="M306 671h110l-101 -106h-110zM468 337l-147 -147l-62 62l163 163h-387v90h408c10 0 19 -4 25 -10c6 -5 10 -13 10 -21v-113c0 -9 -4 -18 -10 -24zM259 252l-162 -162h386v-90h-408c-10 0 -19 4 -25 10c-6 5 -10 13 -10 21v112c0 9 4 18 10 24l147 147z" />
    <glyph glyph-name="zcaron" unicode="&#x17e;" horiz-adv-x="518" 
d="M338 564h-160c-8 0 -11 2 -20 11l-47 46l63 62l64 -65c12 -13 29 -13 41 0l63 64l62 -62l-46 -46c-8 -8 -12 -10 -20 -10zM468 337l-147 -147l-62 62l163 163h-387v90h408c10 0 19 -4 25 -10c6 -5 10 -13 10 -21v-113c0 -9 -4 -18 -10 -24zM259 252l-162 -162h386v-90
h-408c-10 0 -19 4 -25 10c-6 5 -10 13 -10 21v112c0 9 4 18 10 24l147 147z" />
    <glyph glyph-name="zdotaccent" unicode="&#x17c;" horiz-adv-x="518" 
d="M203 665h96v-96h-96v96zM468 337l-147 -147l-62 62l163 163h-387v90h408c10 0 19 -4 25 -10c6 -5 10 -13 10 -21v-113c0 -9 -4 -18 -10 -24zM259 252l-162 -162h386v-90h-408c-10 0 -19 4 -25 10c-6 5 -10 13 -10 21v112c0 9 4 18 10 24l147 147z" />
    <glyph glyph-name="ordfeminine" unicode="&#xaa;" horiz-adv-x="443" 
d="M398 295h-91v293c0 12 -10 22 -23 22h-237v90h226c15 0 21 -6 31 -16l78 -78c11 -11 16 -25 16 -40v-271zM205 295h-72c-8 0 -15 4 -20 9l-78 78c-14 14 -14 36 0 50l135 135l63 -62l-120 -120h194l-81 -81c-5 -5 -13 -9 -21 -9z" />
    <glyph glyph-name="ordmasculine" unicode="&#xba;" horiz-adv-x="470" 
d="M292 295h-114c-15 0 -29 6 -39 16l-78 78c-11 11 -16 25 -16 40v137c0 15 5 29 16 40l78 78c10 10 24 16 39 16h114c15 0 29 -6 39 -16l78 -78c11 -11 16 -25 16 -40v-137c0 -15 -5 -29 -16 -40l-78 -78c-10 -10 -24 -16 -39 -16zM159 385h152c13 0 23 10 23 22v181
c0 12 -10 22 -23 22h-152c-13 0 -23 -10 -23 -22v-181c0 -12 10 -22 23 -22z" />
    <glyph glyph-name="uni0394" unicode="&#x394;" horiz-adv-x="649" 
d="M517 690l79 -80c5 -5 8 -12 8 -19v-457c0 -15 -5 -29 -16 -40l-78 -78c-10 -10 -24 -16 -39 -16h-243c-8 0 -16 4 -21 9l-81 81h364c13 0 23 10 23 22v497l-387 -388v-221h-91v223c0 20 8 39 22 53l413 414c13 13 34 13 47 0z" />
    <glyph glyph-name="uni03A9" unicode="&#x3a9;" horiz-adv-x="722" 
d="M648 248l-159 -158h178v-90h-200c-10 0 -19 4 -25 10c-6 5 -10 13 -10 21v112c0 9 4 18 10 24l115 115v306c0 12 -10 22 -23 22h-346c-13 0 -23 -10 -23 -22v-306l115 -115c6 -6 10 -15 10 -24v-112c0 -8 -4 -16 -10 -21c-6 -6 -15 -10 -25 -10h-200v90h178l-159 158v318
c0 15 5 29 16 40l78 78c10 10 24 16 39 16h308c15 0 29 -6 39 -16l78 -78c11 -11 16 -25 16 -40v-318z" />
    <glyph glyph-name="uni03BC" unicode="&#x3bc;" horiz-adv-x="561" 
d="M136 505v-705h-91v705h91zM404 0c-9 0 -18 4 -25 11l-220 220l63 62l203 -203v415h91v-396c0 -8 -4 -15 -9 -20l-78 -78c-7 -7 -16 -11 -25 -11z" />
    <glyph glyph-name="pi" unicode="&#x3c0;" horiz-adv-x="748" 
d="M35 505h70c15 0 29 -6 39 -16l88 -88c11 -11 16 -25 16 -40v-361h-91v393c0 12 -10 22 -23 22h-99v90zM244 505h188c15 0 29 -6 39 -16l88 -88c11 -11 16 -25 16 -40v-361h-91v393c0 12 -10 22 -23 22h-217v90zM713 408h-133v97h133v-97z" />
    <glyph glyph-name="uni00B9" unicode="&#xb9;" horiz-adv-x="390" 
d="M279 440h86v-90h-67c-15 0 -29 6 -39 16l-78 78c-11 11 -16 25 -16 40v254c0 12 -10 22 -23 22h-107v90h88c15 0 29 -6 39 -16l78 -78c11 -11 16 -25 16 -40v-254c0 -12 10 -22 23 -22zM55 350h-30v90h139l-77 -77c-9 -9 -20 -13 -32 -13z" />
    <glyph glyph-name="uni00B2" unicode="&#xb2;" horiz-adv-x="514" 
d="M452 671l-142 -142l-63 62l131 131v17c0 12 -10 22 -23 22h-196c-13 0 -23 -10 -23 -22v-59h-91v37c0 15 5 29 16 40l78 78c10 10 24 16 39 16h158c15 0 29 -6 39 -16l77 -77c11 -11 17 -25 17 -40v-7c0 -15 -6 -29 -17 -40zM469 350h-291c-15 0 -29 6 -39 16l-78 78
c-10 10 -16 24 -16 39v7c0 15 6 29 17 40l123 122l62 -62l-111 -111v-17c0 -12 10 -22 23 -22h310v-90z" />
    <glyph glyph-name="uni00B3" unicode="&#xb3;" horiz-adv-x="514" 
d="M469 706v-24c0 -12 -5 -24 -13 -32l-60 -60l60 -60c8 -8 13 -20 13 -32v-24c0 -15 -5 -29 -16 -40l-78 -78c-10 -10 -24 -16 -39 -16h-158c-15 0 -29 6 -39 16l-78 78c-11 11 -16 25 -16 40v27h91v-49c0 -12 10 -22 23 -22h196c13 0 23 10 23 22v31l-40 40
c-9 9 -14 22 -14 34v66c0 12 5 25 14 34l40 40v31c0 12 -10 22 -23 22h-196c-13 0 -23 -10 -23 -22v-49h-91v27c0 15 5 29 16 40l78 78c10 10 24 16 39 16h158c15 0 29 -6 39 -16l78 -78c11 -11 16 -25 16 -40z" />
    <glyph glyph-name="uni2074" unicode="&#x2074;" horiz-adv-x="554" 
d="M405 340h-91v91c0 12 -10 22 -23 22h-161c-8 0 -15 4 -20 9l-78 77c-7 7 -12 16 -12 25s5 18 12 25l236 236c7 7 16 11 25 11s18 -4 25 -11l78 -78c5 -5 9 -12 9 -20v-184l-78 78c-9 9 -13 20 -13 32v93l-203 -203h161c15 0 29 -6 39 -16l78 -78c11 -11 16 -25 16 -40
v-69zM534 453h-20c-12 0 -23 4 -32 13l-77 77h129v-90z" />
    <glyph glyph-name="fraction" unicode="&#x2044;" horiz-adv-x="298" 
d="M34 0h-105l460 700h105z" />
    <glyph glyph-name="onehalf" unicode="&#xbd;" horiz-adv-x="1172" 
d="M316 0l460 700h105l-460 -700h-105zM279 289h86v-90h-67c-15 0 -29 6 -39 16l-78 78c-11 11 -16 25 -16 40v254c0 12 -10 22 -23 22h-107v90h88c15 0 29 -6 39 -16l78 -78c11 -11 16 -25 16 -40v-254c0 -12 10 -22 23 -22zM1073 485l77 -77c11 -11 17 -25 17 -40v-7
c0 -15 -6 -29 -17 -40l-142 -142l-63 62l131 131v17c0 12 -10 22 -23 22h-196c-13 0 -23 -10 -23 -22v-59h-91v37c0 15 5 29 16 40l78 78c10 10 24 16 39 16h158c15 0 29 -6 39 -16zM834 129v-17c0 -12 10 -22 23 -22h310v-90h-291c-15 0 -29 6 -39 16l-78 78
c-10 10 -16 24 -16 39v7c0 15 6 29 17 40l123 122l62 -62zM55 199h-30v90h139l-77 -77c-9 -9 -20 -13 -32 -13z" />
    <glyph glyph-name="onequarter" unicode="&#xbc;" horiz-adv-x="1203" 
d="M316 0l460 700h105l-460 -700h-105zM279 289h86v-90h-67c-15 0 -29 6 -39 16l-78 78c-11 11 -16 25 -16 40v254c0 12 -10 22 -23 22h-107v90h88c15 0 29 -6 39 -16l78 -78c11 -11 16 -25 16 -40v-254c0 -12 10 -22 23 -22zM967 485l78 -78c5 -5 9 -12 9 -20v-184l-78 78
c-9 9 -13 20 -13 32v93l-203 -203h161c15 0 29 -6 39 -16l78 -78c11 -11 16 -25 16 -40v-69h-91v91c0 12 -10 22 -23 22h-161c-8 0 -15 4 -20 9l-78 77c-7 7 -12 16 -12 25s5 18 12 25l236 236c7 7 16 11 25 11s18 -4 25 -11zM55 199h-30v90h139l-77 -77
c-9 -9 -20 -13 -32 -13zM1131 126l-77 77h129v-90h-20c-12 0 -23 4 -32 13z" />
    <glyph glyph-name="threequarters" unicode="&#xbe;" horiz-adv-x="1268" 
d="M469 566v-24c0 -12 -5 -24 -13 -32l-60 -60l60 -60c8 -8 13 -20 13 -32v-24c0 -15 -5 -29 -16 -40l-78 -78c-10 -10 -24 -16 -39 -16h-158c-15 0 -29 6 -39 16l-78 78c-11 11 -16 25 -16 40v27h91v-49c0 -12 10 -22 23 -22h196c13 0 23 10 23 22v31l-40 40
c-9 9 -14 22 -14 34v66c0 12 5 25 14 34l40 40v31c0 12 -10 22 -23 22h-196c-13 0 -23 -10 -23 -22v-49h-91v27c0 15 5 29 16 40l78 78c10 10 24 16 39 16h158c15 0 29 -6 39 -16l78 -78c11 -11 16 -25 16 -40zM461 0h-105l460 700h105zM1094 0h-91v91c0 12 -10 22 -23 22
h-161c-8 0 -15 4 -20 9l-78 77c-7 7 -12 16 -12 25s5 18 12 25l236 236c7 7 16 11 25 11s18 -4 25 -11l78 -78c5 -5 9 -12 9 -20v-184l-78 78c-9 9 -13 20 -13 32v93l-203 -203h161c15 0 29 -6 39 -16l78 -78c11 -11 16 -25 16 -40v-69zM1223 113h-20c-12 0 -23 4 -32 13
l-77 77h129v-90z" />
    <glyph glyph-name="period" unicode="." 
d="M140 0h-99v98h99v-98z" />
    <glyph glyph-name="comma" unicode="," horiz-adv-x="192" 
d="M56 -30v128h91v-143c0 -12 -4 -23 -13 -32l-77 -77l-62 63z" />
    <glyph glyph-name="colon" unicode=":" 
d="M140 415h-99v98h99v-98zM140 0h-99v98h99v-98z" />
    <glyph glyph-name="semicolon" unicode=";" horiz-adv-x="191" 
d="M150 415h-99v98h99v-98zM56 -30v128h91v-143c0 -12 -4 -23 -13 -32l-77 -77l-62 63z" />
    <glyph glyph-name="ellipsis" unicode="&#x2026;" horiz-adv-x="581" 
d="M140 0h-99v98h99v-98zM340 0h-99v98h99v-98zM540 0h-99v98h99v-98z" />
    <glyph glyph-name="exclam" unicode="!" horiz-adv-x="191" 
d="M141 210h-91v490h91v-490zM145 0h-99v98h99v-98z" />
    <glyph glyph-name="exclamdown" unicode="&#xa1;" horiz-adv-x="191" 
d="M46 407v98h99v-98h-99zM50 -200v495h91v-495h-91z" />
    <glyph glyph-name="question" unicode="?" horiz-adv-x="553" 
d="M414 684l78 -78c11 -11 16 -25 16 -40v-131c0 -15 -5 -28 -16 -39l-76 -76c-10 -10 -24 -16 -39 -16h-107c-13 0 -23 -10 -23 -22v-87h-91v65c0 15 5 29 16 40l78 78c10 10 24 16 39 16h105c13 0 23 10 23 22v172c0 12 -10 22 -23 22h-364v90h345c15 0 29 -6 39 -16z
M252 0h-99v98h99v-98z" />
    <glyph glyph-name="questiondown" unicode="&#xbf;" horiz-adv-x="553" 
d="M301 505h99v-98h-99v98zM159 -110h364v-90h-345c-15 0 -29 6 -39 16l-78 78c-11 11 -16 25 -16 40v136c0 15 5 28 16 39l76 76c10 10 24 16 39 16h107c13 0 23 10 23 22v87h91v-65c0 -15 -5 -29 -16 -40l-78 -78c-10 -10 -24 -16 -39 -16h-105c-13 0 -23 -10 -23 -22
v-177c0 -12 10 -22 23 -22z" />
    <glyph glyph-name="periodcentered" unicode="&#xb7;" 
d="M140 247h-99v98h99v-98z" />
    <glyph glyph-name="bullet" unicode="&#x2022;" horiz-adv-x="300" 
d="M230 221h-160v160h160v-160z" />
    <glyph glyph-name="asterisk" unicode="*" horiz-adv-x="387" 
d="M172 606v-150c0 -18 -6 -31 -18 -43l-51 -51l-62 63l107 106l-107 106l62 63l51 -51c12 -12 18 -25 18 -43zM215 456v150c0 18 6 31 18 43l51 51l62 -63l-107 -106l107 -106l-62 -63l-51 51c-12 12 -18 25 -18 43z" />
    <glyph glyph-name="numbersign" unicode="#" horiz-adv-x="685" 
d="M55 505h156l28 195h92l-100 -700h-92l28 197h-132v90h145l18 128h-143v90zM650 505l-1 -90h-146l-18 -128h145l-1 -90h-157l-28 -197h-91l100 700h91l-28 -195h134z" />
    <glyph glyph-name="slash" unicode="/" horiz-adv-x="618" 
d="M92 0h-105l540 700h105z" />
    <glyph glyph-name="backslash" unicode="\" horiz-adv-x="618" 
d="M91 700l540 -700h-105l-540 700h105z" />
    <glyph glyph-name="parenleft" unicode="(" horiz-adv-x="296" 
d="M281 -160h-105c-9 0 -12 2 -19 9l-104 104c-7 7 -8 11 -8 19v696c0 8 1 12 8 19l104 104c7 7 10 9 19 9h105v-89h-80l-65 -65v-652l65 -65h80v-89z" />
    <glyph glyph-name="parenright" unicode=")" horiz-adv-x="296" 
d="M120 -160h-105v89h80l65 65v652l-65 65h-80v89h105c9 0 12 -2 19 -9l104 -104c7 -7 8 -11 8 -19v-696c0 -8 -1 -12 -8 -19l-104 -104c-7 -7 -10 -9 -19 -9z" />
    <glyph glyph-name="braceleft" unicode="{" horiz-adv-x="381" 
d="M268 800h98v-90h-117c-13 0 -23 -10 -23 -22v-269c0 -15 -5 -29 -16 -40l-78 -78c-10 -10 -24 -16 -39 -16h-68v90h87c13 0 23 10 23 22v269c0 15 5 29 16 40l78 78c10 10 24 16 39 16zM226 263v-311c0 -12 10 -22 23 -22h117v-90h-98c-15 0 -29 6 -39 16l-78 78
c-11 11 -16 25 -16 40v289h91z" />
    <glyph glyph-name="braceright" unicode="}" horiz-adv-x="381" 
d="M269 375h87v-90h-68c-15 0 -29 6 -39 16l-78 78c-11 11 -16 25 -16 40v269c0 12 -10 22 -23 22h-117v90h98c15 0 29 -6 39 -16l78 -78c11 -11 16 -25 16 -40v-269c0 -12 10 -22 23 -22zM155 -48v311h91v-289c0 -15 -5 -29 -16 -40l-78 -78c-10 -10 -24 -16 -39 -16h-98
v90h117c13 0 23 10 23 22z" />
    <glyph glyph-name="bracketleft" unicode="[" horiz-adv-x="291" 
d="M276 -70v-90h-98c-15 0 -29 6 -39 16l-78 78c-11 11 -16 25 -16 40v692c0 15 5 29 16 40l78 78c10 10 24 16 39 16h98v-90h-117c-13 0 -23 -10 -23 -22v-736c0 -12 10 -22 23 -22h117z" />
    <glyph glyph-name="bracketright" unicode="]" horiz-adv-x="291" 
d="M113 -160h-98v90h117c13 0 23 10 23 22v736c0 12 -10 22 -23 22h-117v90h98c15 0 29 -6 39 -16l78 -78c11 -11 16 -25 16 -40v-692c0 -15 -5 -29 -16 -40l-78 -78c-10 -10 -24 -16 -39 -16z" />
    <glyph glyph-name="parenleft.case" horiz-adv-x="296" 
d="M271 -40h-95c-9 0 -12 2 -19 9l-104 104c-7 7 -8 11 -8 19v516c0 8 1 12 8 19l104 104c7 7 10 9 19 9h95v-89h-70l-65 -65v-472l65 -65h70v-89z" />
    <glyph glyph-name="parenright.case" horiz-adv-x="296" 
d="M120 -40h-95v89h70l65 65v472l-65 65h-70v89h95c9 0 12 -2 19 -9l104 -104c7 -7 8 -11 8 -19v-516c0 -8 -1 -12 -8 -19l-104 -104c-7 -7 -10 -9 -19 -9z" />
    <glyph glyph-name="braceleft.case" horiz-adv-x="391" 
d="M268 740h98v-90h-117c-13 0 -23 -10 -23 -22v-160c0 -15 -5 -29 -16 -40l-78 -78c-10 -10 -24 -16 -39 -16h-68v90h87c13 0 23 10 23 22v160c0 15 5 29 16 40l78 78c10 10 24 16 39 16zM135 312h91v-240c0 -12 10 -22 23 -22h117v-90h-98c-15 0 -29 6 -39 16l-78 78
c-11 11 -16 25 -16 40v218z" />
    <glyph glyph-name="braceright.case" horiz-adv-x="391" 
d="M25 740h98c15 0 29 -6 39 -16l78 -78c11 -11 16 -25 16 -40v-160c0 -12 10 -22 23 -22h87v-90h-68c-15 0 -29 6 -39 16l-78 78c-11 11 -16 25 -16 40v160c0 12 -10 22 -23 22h-117v90zM165 72v240h91v-218c0 -15 -5 -29 -16 -40l-78 -78c-10 -10 -24 -16 -39 -16h-98v90
h117c13 0 23 10 23 22z" />
    <glyph glyph-name="bracketleft.case" horiz-adv-x="301" 
d="M276 50v-90h-98c-15 0 -29 6 -39 16l-78 78c-11 11 -16 25 -16 40v512c0 15 5 29 16 40l78 78c10 10 24 16 39 16h98v-90h-117c-13 0 -23 -10 -23 -22v-556c0 -12 10 -22 23 -22h117z" />
    <glyph glyph-name="bracketright.case" horiz-adv-x="301" 
d="M123 -40h-98v90h117c13 0 23 10 23 22v556c0 12 -10 22 -23 22h-117v90h98c15 0 29 -6 39 -16l78 -78c11 -11 16 -25 16 -40v-512c0 -15 -5 -29 -16 -40l-78 -78c-10 -10 -24 -16 -39 -16z" />
    <glyph glyph-name="hyphen" unicode="-" horiz-adv-x="400" 
d="M355 257h-310v90h310v-90z" />
    <glyph glyph-name="uni00AD" unicode="&#xad;" horiz-adv-x="440" 
d="M355 257h-310v90h310v-90z" />
    <glyph glyph-name="endash" unicode="&#x2013;" horiz-adv-x="569" 
d="M524 257h-479v90h479v-90z" />
    <glyph glyph-name="emdash" unicode="&#x2014;" horiz-adv-x="959" 
d="M914 257h-869v90h869v-90z" />
    <glyph glyph-name="underscore" unicode="_" horiz-adv-x="469" 
d="M454 -132h-439v90h439v-90z" />
    <glyph glyph-name="hyphen.case" horiz-adv-x="400" 
d="M355 307h-310v90h310v-90z" />
    <glyph glyph-name="endash.case" horiz-adv-x="569" 
d="M524 307h-479v90h479v-90z" />
    <glyph glyph-name="emdash.case" horiz-adv-x="959" 
d="M914 307h-869v90h869v-90z" />
    <glyph glyph-name="quotesinglbase" unicode="&#x201a;" horiz-adv-x="192" 
d="M56 -30v128h91v-143c0 -12 -4 -23 -13 -32l-77 -77l-62 63z" />
    <glyph glyph-name="quotedblbase" unicode="&#x201e;" horiz-adv-x="365" 
d="M56 -30v128h91v-143c0 -12 -4 -23 -13 -32l-77 -77l-62 63zM229 -30v128h91v-143c0 -12 -4 -23 -13 -32l-77 -77l-62 63z" />
    <glyph glyph-name="quotedblleft" unicode="&#x201c;" horiz-adv-x="378" 
d="M136 583v-128h-91v143c0 12 4 23 13 32l77 77l62 -63zM301 583v-128h-91v143c0 12 4 23 13 32l77 77l62 -63z" />
    <glyph glyph-name="quotedblright" unicode="&#x201d;" horiz-adv-x="378" 
d="M77 572v128h91v-143c0 -12 -4 -23 -13 -32l-77 -77l-62 63zM242 572v128h91v-143c0 -12 -4 -23 -13 -32l-77 -77l-62 63z" />
    <glyph glyph-name="quoteleft" unicode="&#x2018;" horiz-adv-x="213" 
d="M136 584v-128h-91v143c0 12 4 23 13 32l77 77l62 -63z" />
    <glyph glyph-name="quoteright" unicode="&#x2019;" horiz-adv-x="213" 
d="M77 572v128h91v-143c0 -12 -4 -23 -13 -32l-77 -77l-62 63z" />
    <glyph glyph-name="guillemotleft" unicode="&#xab;" horiz-adv-x="471" 
d="M232 100l-63 -63l-117 117c-6 6 -7 11 -7 19v198c0 9 1 13 7 19l117 117l63 -63l-152 -152c-13 -13 -13 -27 0 -40zM436 99l-63 -63l-117 117c-6 6 -7 11 -7 19v198c0 9 1 13 7 19l117 117l63 -63l-152 -152c-13 -13 -13 -27 0 -40z" />
    <glyph glyph-name="guillemotright" unicode="&#xbb;" horiz-adv-x="471" 
d="M419 154l-117 -117l-63 63l152 152c13 13 13 27 0 40l-152 152l63 63l117 -117c6 -6 7 -10 7 -19v-198c0 -8 -1 -13 -7 -19zM215 153l-117 -117l-63 63l152 152c13 13 13 27 0 40l-152 152l63 63l117 -117c6 -6 7 -10 7 -19v-198c0 -8 -1 -13 -7 -19z" />
    <glyph glyph-name="guilsinglleft" unicode="&#x2039;" horiz-adv-x="267" 
d="M232 100l-63 -63l-117 117c-6 6 -7 11 -7 19v198c0 9 1 13 7 19l117 117l63 -63l-152 -152c-13 -13 -13 -27 0 -40z" />
    <glyph glyph-name="guilsinglright" unicode="&#x203a;" horiz-adv-x="267" 
d="M215 154l-117 -117l-63 63l152 152c13 13 13 27 0 40l-152 152l63 63l117 -117c6 -6 7 -10 7 -19v-198c0 -8 -1 -13 -7 -19z" />
    <glyph glyph-name="quotedbl" unicode="&#x22;" horiz-adv-x="363" 
d="M146 460h-91v240h91v-240zM308 460h-91v240h91v-240z" />
    <glyph glyph-name="quotesingle" unicode="'" horiz-adv-x="201" 
d="M146 460h-91v240h91v-240z" />
    <glyph glyph-name="guillemotleft.case" horiz-adv-x="481" 
d="M237 178l-63 -63l-117 117c-6 6 -7 11 -7 19v198c0 9 1 13 7 19l117 117l63 -63l-152 -152c-13 -13 -13 -27 0 -40zM441 177l-63 -63l-117 117c-6 6 -7 11 -7 19v198c0 9 1 13 7 19l117 117l63 -63l-152 -152c-13 -13 -13 -27 0 -40z" />
    <glyph glyph-name="guillemotright.case" horiz-adv-x="481" 
d="M424 232l-117 -117l-63 63l152 152c13 13 13 27 0 40l-152 152l63 63l117 -117c6 -6 7 -10 7 -19v-198c0 -8 -1 -13 -7 -19zM220 231l-117 -117l-63 63l152 152c13 13 13 27 0 40l-152 152l63 63l117 -117c6 -6 7 -10 7 -19v-198c0 -8 -1 -13 -7 -19z" />
    <glyph glyph-name="guilsinglleft.case" horiz-adv-x="267" 
d="M232 178l-63 -63l-117 117c-6 6 -7 11 -7 19v198c0 9 1 13 7 19l117 117l63 -63l-152 -152c-13 -13 -13 -27 0 -40z" />
    <glyph glyph-name="guilsinglright.case" horiz-adv-x="267" 
d="M215 232l-117 -117l-63 63l152 152c13 13 13 27 0 40l-152 152l63 63l117 -117c6 -6 7 -10 7 -19v-198c0 -8 -1 -13 -7 -19z" />
    <glyph glyph-name="uni00A0" unicode="&#xa0;" horiz-adv-x="250" 
 />
    <glyph glyph-name="cent" unicode="&#xa2;" horiz-adv-x="520" 
d="M475 515h-316c-13 0 -23 -10 -23 -22v-281c0 -12 10 -22 23 -22h316v-90h-134v-110h-96v110h-67c-15 0 -29 6 -39 16l-78 78c-11 11 -16 25 -16 40v237c0 15 5 29 16 40l78 78c10 10 24 16 39 16h67v105h96v-105h134v-90z" />
    <glyph glyph-name="currency" unicode="&#xa4;" horiz-adv-x="566" 
d="M409 287l127 -125l-62 -62l-126 126l-33 -33c-6 -6 -11 -8 -20 -8h-24c-9 0 -14 2 -20 8l-33 33l-126 -126l-62 62l127 125l-30 30c-7 7 -9 12 -9 20v24c0 8 2 13 9 20l33 33l-128 129l62 62l128 -129l29 29c6 6 11 8 20 8h24c9 0 14 -2 20 -8l29 -29l128 129l62 -62
l-128 -129l33 -33c7 -7 9 -12 9 -20v-24c0 -8 -2 -13 -9 -20zM245 282h76c19 0 30 11 30 30v74c0 19 -11 30 -30 30h-76c-19 0 -30 -11 -30 -30v-74c0 -19 11 -30 30 -30z" />
    <glyph glyph-name="dollar" unicode="$" horiz-adv-x="605" 
d="M136 588v-71l166 -167l-62 -62l-182 182c-9 8 -13 20 -13 32v64c0 15 5 29 16 40l78 78c10 10 24 16 39 16h79v110h91v-110h207v-90h-396c-13 0 -23 -10 -23 -22zM365 412l182 -182c8 -8 13 -20 13 -32v-64c0 -15 -5 -29 -16 -40l-78 -78c-10 -10 -24 -16 -39 -16h-79
v-110h-91v110h-208v90h397c13 0 23 10 23 22v71l-167 167z" />
    <glyph glyph-name="Euro" unicode="&#x20ac;" horiz-adv-x="699" 
d="M560 684l78 -78c11 -11 16 -25 16 -40v-57h-91v79c0 12 -10 22 -23 22h-270c-13 0 -23 -10 -23 -22v-83c0 -12 -4 -23 -13 -32l-78 -78v171c0 15 5 29 16 40l78 78c10 10 24 16 39 16h232c15 0 29 -6 39 -16zM47 305h-22v90h131l-77 -77c-9 -9 -20 -13 -32 -13zM563 112
v79h91v-57c0 -15 -5 -29 -16 -40l-78 -78c-10 -10 -24 -16 -39 -16h-232c-15 0 -29 6 -39 16l-78 78c-11 11 -16 25 -16 40v127c0 15 5 29 16 40l78 78c10 10 24 16 39 16h156v-90h-175c-13 0 -23 -10 -23 -22v-171c0 -12 10 -22 23 -22h270c13 0 23 10 23 22z" />
    <glyph glyph-name="florin" unicode="&#x192;" horiz-adv-x="477" 
d="M321 700h126v-90h-145c-13 0 -23 -10 -23 -22v-83c0 -12 -4 -23 -13 -32l-78 -78v171c0 15 5 29 16 40l78 78c10 10 24 16 39 16zM204 301l78 78c10 10 24 16 39 16h116v-90h-135c-13 0 -23 -10 -23 -22v-149c0 -15 -5 -29 -16 -40l-78 -78c-10 -10 -24 -16 -39 -16h-126
v90h145c13 0 23 10 23 22v149c0 15 5 29 16 40zM79 305h-22v90h131l-77 -77c-9 -9 -20 -13 -32 -13z" />
    <glyph glyph-name="sterling" unicode="&#xa3;" horiz-adv-x="685" 
d="M546 684l78 -78c11 -11 16 -25 16 -40v-57h-91v79c0 12 -10 22 -23 22h-238c-13 0 -23 -10 -23 -22v-172c0 -12 10 -22 23 -22h168v-90h-151c-15 0 -29 6 -39 16l-76 76c-11 11 -16 24 -16 39v131c0 15 5 29 16 40l78 78c10 10 24 16 39 16h200c15 0 29 -6 39 -16z
M45 394h22c12 0 23 -4 32 -13l75 -77h-129v90zM265 194v-63c0 -14 -5 -28 -16 -39l-76 -76c-10 -10 -24 -16 -39 -16h-89v90h106c13 0 23 10 23 22v192l79 -80c7 -8 12 -19 12 -30zM342 13l-77 77h375v-90h-266c-12 0 -23 4 -32 13z" />
    <glyph glyph-name="yen" unicode="&#xa5;" horiz-adv-x="676" 
d="M378 365v-107h151v-90h-151v-168h-91v168h-139v90h139v97l-283 283l63 62l294 -294c11 -11 17 -26 17 -41zM598 700l62 -62l-210 -211l-63 62z" />
    <glyph glyph-name="plus" unicode="+" horiz-adv-x="553" 
d="M182 309h-132v91h155c18 0 28 10 28 28v160h91v-136c0 -8 -2 -13 -8 -19l-116 -116c-6 -6 -11 -8 -18 -8zM320 117h-91v139c0 8 2 13 8 18l116 116c6 7 11 9 18 9h132v-91h-155c-18 0 -28 -10 -28 -28v-163z" />
    <glyph glyph-name="minus" unicode="&#x2212;" horiz-adv-x="553" 
d="M503 389v-91l-453 1v91z" />
    <glyph glyph-name="multiply" unicode="&#xd7;" horiz-adv-x="553" 
d="M361 370h-164c-9 0 -14 2 -19 8l-123 122l65 65l158 -160l157 157l65 -64l-120 -120c-6 -5 -11 -8 -19 -8zM499 184l-65 -65l-159 160l-158 -159l-64 65l121 121c6 6 10 8 19 8h163c10 0 13 -1 20 -8z" />
    <glyph glyph-name="divide" unicode="&#xf7;" horiz-adv-x="553" 
d="M326 484h-99v98h99v-98zM503 389v-91l-453 1v91zM326 106h-99v98h99v-98z" />
    <glyph glyph-name="equal" unicode="=" horiz-adv-x="553" 
d="M503 501v-91l-453 1v91zM503 278v-91l-453 1v91z" />
    <glyph glyph-name="notequal" unicode="&#x2260;" horiz-adv-x="576" 
d="M478 582l-80 -81h105v-91l-453 1v91h223l142 142zM151 188h-101v91l453 -1v-91l-226 1l-143 -143l-63 62z" />
    <glyph glyph-name="greater" unicode="&#x3e;" horiz-adv-x="507" 
d="M447 262l-397 -139v97l338 115c13 4 13 19 0 24l-338 116v97l397 -139c10 -4 10 -16 10 -23v-127c0 -6 -1 -18 -10 -21z" />
    <glyph glyph-name="less" unicode="&#x3c;" horiz-adv-x="507" 
d="M457 220v-97l-397 139c-9 3 -10 15 -10 21v127c0 7 0 19 10 23l397 139v-97l-338 -116c-13 -5 -13 -20 0 -24z" />
    <glyph glyph-name="greaterequal" unicode="&#x2265;" horiz-adv-x="508" 
d="M447 288l-397 -139v97l338 115c13 4 13 19 0 24l-338 116v97l397 -139c10 -4 10 -16 10 -23v-127c0 -6 -1 -18 -10 -21zM458 89v-89l-408 1v89z" />
    <glyph glyph-name="lessequal" unicode="&#x2264;" horiz-adv-x="547" 
d="M497 246v-97l-397 139c-9 3 -10 15 -10 21v127c0 7 0 19 10 23l397 139v-97l-338 -116c-13 -5 -13 -20 0 -24zM497 1l-408 -1v89l408 1v-89z" />
    <glyph glyph-name="plusminus" unicode="&#xb1;" horiz-adv-x="552" 
d="M181 358h-132v91h155c18 0 28 10 28 28v160h91v-136c0 -8 -2 -13 -8 -19l-116 -116c-6 -6 -11 -8 -18 -8zM319 166h-91v139c0 8 2 13 8 18l116 116c6 7 11 9 18 9h132v-91h-155c-18 0 -28 -10 -28 -28v-163zM502 91v-91h-451v91h451z" />
    <glyph glyph-name="approxequal" unicode="&#x2248;" horiz-adv-x="551" 
d="M140 306h-90v48c0 8 2 13 7 19l116 115c7 7 11 9 19 9h219v100h90v-48c0 -8 -2 -13 -7 -19l-116 -115c-7 -7 -11 -9 -19 -9h-219v-100zM140 92h-90v48c0 8 2 13 7 19l116 115c7 7 11 9 19 9h219v100h90v-48c0 -8 -2 -13 -7 -19l-116 -115c-7 -7 -11 -9 -19 -9h-219v-100z
" />
    <glyph glyph-name="logicalnot" unicode="&#xac;" horiz-adv-x="553" 
d="M503 140h-91v163c0 18 -10 28 -28 28h-334v91h311c8 0 12 -2 19 -8l116 -116c5 -6 7 -10 7 -19v-139z" />
    <glyph glyph-name="asciitilde" unicode="~" horiz-adv-x="551" 
d="M140 199h-90v48c0 8 2 13 7 19l116 115c7 7 11 9 19 9h219v100h90v-48c0 -8 -2 -13 -7 -19l-116 -115c-7 -7 -11 -9 -19 -9h-219v-100z" />
    <glyph glyph-name="asciicircum" unicode="^" horiz-adv-x="569" 
d="M264 638l-151 -151l-63 63l133 135c7 6 10 8 19 8h163c10 0 14 -2 20 -8l134 -133l-64 -64l-150 150c-14 13 -28 13 -41 0z" />
    <glyph glyph-name="infinity" unicode="&#x221e;" horiz-adv-x="794" 
d="M298 132h-106c-8 0 -13 1 -19 7l-116 116c-6 6 -7 11 -7 19v62c0 8 1 13 7 19l116 116c6 6 11 7 19 7h71c8 0 13 -2 18 -7l84 -83h-196c-18 0 -28 -11 -28 -28v-110c0 -17 10 -28 28 -28h152c18 0 28 11 28 28v86c0 8 2 13 8 19l116 116c5 5 11 7 18 7h111
c8 0 13 -1 19 -7l116 -116c6 -6 7 -11 7 -19v-62c0 -8 -1 -13 -7 -19l-116 -116c-6 -6 -11 -7 -19 -7h-71c-8 0 -13 2 -18 7l-84 83h196c18 0 28 11 28 28v110c0 17 -10 28 -28 28h-157c-21 0 -28 -11 -28 -28v-86c0 -8 -1 -13 -7 -19l-116 -116c-6 -6 -12 -7 -19 -7z" />
    <glyph glyph-name="integral" unicode="&#x222b;" horiz-adv-x="493" 
d="M334 700h134v-90h-153c-13 0 -23 -10 -23 -22v-554c0 -15 -5 -29 -16 -40l-78 -78c-10 -10 -24 -16 -39 -16h-134v90h153c13 0 23 10 23 22v554c0 15 5 29 16 40l78 78c10 10 24 16 39 16z" />
    <glyph glyph-name="product" unicode="&#x220f;" horiz-adv-x="773" 
d="M738 610h-703v90h703v-90zM163 499l79 80v-579h-91v469c0 11 5 22 12 30zM543 499l79 80v-579h-91v469c0 11 5 22 12 30z" />
    <glyph glyph-name="summation" unicode="&#x2211;" horiz-adv-x="624" 
d="M178 700h411v-90h-430c-13 0 -23 -10 -23 -22v-57l89 -90l-62 -62l-101 101c-12 12 -17 25 -17 40v47c0 15 6 29 16 39l78 78c10 10 24 16 39 16zM589 0h-411c-15 0 -29 6 -39 16l-78 78c-10 10 -16 24 -16 39v47c0 15 6 29 17 40l194 192v-124l-120 -119v-57
c0 -12 10 -22 23 -22h430v-90z" />
    <glyph glyph-name="radical" unicode="&#x221a;" horiz-adv-x="660" 
d="M250 0h-72c-7 0 -13 2 -19 8l-116 118c-6 6 -8 12 -8 19v207h91v-234c0 -18 10 -28 28 -28h64l316 479v131h91v-143c0 -9 -2 -14 -7 -22l-349 -527c-5 -8 -11 -8 -19 -8z" />
    <glyph glyph-name="partialdiff" unicode="&#x2202;" horiz-adv-x="587" 
d="M409 0h-231c-15 0 -29 6 -39 16l-78 78c-11 11 -16 25 -16 40v262c0 8 4 15 9 20l78 78c7 7 16 11 25 11s18 -4 25 -11l236 -236l-63 -62l-219 219v-303c0 -12 10 -22 23 -22h269c13 0 23 10 23 22v331l-258 257h121l228 -225v-341c0 -15 -5 -29 -16 -40l-78 -78
c-10 -10 -24 -16 -39 -16z" />
    <glyph glyph-name="uni00B5" unicode="&#xb5;" horiz-adv-x="561" 
d="M136 505v-705h-91v705h91zM404 0c-9 0 -18 4 -25 11l-220 220l63 62l203 -203v415h91v-396c0 -8 -4 -15 -9 -20l-78 -78c-7 -7 -16 -11 -25 -11z" />
    <glyph glyph-name="percent" unicode="%" horiz-adv-x="823" 
d="M224 395h-41c-15 0 -29 6 -39 16l-78 78c-11 11 -16 25 -16 40v37c0 15 5 29 16 40l78 78c10 10 24 16 39 16h41c15 0 29 -6 39 -16l78 -78c11 -11 16 -25 16 -40v-37c0 -15 -5 -29 -16 -40l-78 -78c-10 -10 -24 -16 -39 -16zM759 639l-635 -639l-61 61l635 639zM164 485
h79c13 0 23 10 23 22v81c0 12 -10 22 -23 22h-79c-13 0 -23 -10 -23 -22v-81c0 -12 10 -22 23 -22zM640 0h-41c-15 0 -29 6 -39 16l-78 78c-11 11 -16 25 -16 40v37c0 15 5 29 16 40l78 78c10 10 24 16 39 16h41c15 0 29 -6 39 -16l78 -78c11 -11 16 -25 16 -40v-37
c0 -15 -5 -29 -16 -40l-78 -78c-10 -10 -24 -16 -39 -16zM580 90h79c13 0 23 10 23 22v81c0 12 -10 22 -23 22h-79c-13 0 -23 -10 -23 -22v-81c0 -12 10 -22 23 -22z" />
    <glyph glyph-name="perthousand" unicode="&#x2030;" horiz-adv-x="1183" 
d="M224 395h-41c-15 0 -29 6 -39 16l-78 78c-11 11 -16 25 -16 40v37c0 15 5 29 16 40l78 78c10 10 24 16 39 16h41c15 0 29 -6 39 -16l78 -78c11 -11 16 -25 16 -40v-37c0 -15 -5 -29 -16 -40l-78 -78c-10 -10 -24 -16 -39 -16zM759 639l-636 -639l-61 61l636 639zM164 485
h79c13 0 23 10 23 22v81c0 12 -10 22 -23 22h-79c-13 0 -23 -10 -23 -22v-81c0 -12 10 -22 23 -22zM640 0h-41c-15 0 -29 6 -39 16l-78 78c-11 11 -16 25 -16 40v37c0 15 5 29 16 40l78 78c10 10 24 16 39 16h41c15 0 29 -6 39 -16l78 -78c11 -11 16 -25 16 -40v-37
c0 -15 -5 -29 -16 -40l-78 -78c-10 -10 -24 -16 -39 -16zM1000 0h-41c-15 0 -29 6 -39 16l-78 78c-11 11 -16 25 -16 40v37c0 15 5 29 16 40l78 78c10 10 24 16 39 16h41c15 0 29 -6 39 -16l78 -78c11 -11 16 -25 16 -40v-37c0 -15 -5 -29 -16 -40l-78 -78
c-10 -10 -24 -16 -39 -16zM580 90h79c13 0 23 10 23 22v81c0 12 -10 22 -23 22h-79c-13 0 -23 -10 -23 -22v-81c0 -12 10 -22 23 -22zM940 90h79c13 0 23 10 23 22v81c0 12 -10 22 -23 22h-79c-13 0 -23 -10 -23 -22v-81c0 -12 10 -22 23 -22z" />
    <glyph glyph-name="lozenge" unicode="&#x25ca;" horiz-adv-x="566" 
d="M368 160h-175c-9 0 -14 3 -20 9l-74 74c-6 6 -9 11 -9 20v175c0 9 3 14 9 20l74 74c6 6 11 9 20 9h175c8 0 14 -3 20 -9l74 -74c6 -6 8 -11 8 -20v-175c0 -9 -2 -14 -8 -20l-74 -74c-6 -6 -12 -9 -20 -9zM149 329l110 -109c14 -13 28 -13 42 0l110 109c14 13 14 30 0 43
l-110 109c-14 13 -28 13 -42 0l-110 -109c-14 -13 -14 -30 0 -43z" />
    <glyph glyph-name="at" unicode="@" horiz-adv-x="669" 
d="M624 566v-401h-91v423c0 12 -10 22 -23 22h-351c-13 0 -23 -10 -23 -22v-476c0 -12 10 -22 23 -22h465v-90h-446c-15 0 -29 6 -39 16l-78 78c-11 11 -16 25 -16 40v432c0 15 5 29 16 40l78 78c10 10 24 16 39 16h313c15 0 29 -6 39 -16l78 -78c11 -11 16 -25 16 -40z
M325 255h208l-81 -81c-5 -5 -13 -9 -21 -9h-87c-15 0 -29 6 -39 16l-78 78c-11 11 -16 25 -16 40v102c0 15 5 29 16 40l78 78c10 10 24 16 39 16h87c8 0 16 -4 21 -9l81 -81h-208c-13 0 -23 -10 -23 -22v-146c0 -12 10 -22 23 -22z" />
    <glyph glyph-name="ampersand" unicode="&#x26;" horiz-adv-x="719" 
d="M454 194c0 11 5 22 12 30l79 80v-170c0 -15 -5 -29 -16 -40l-78 -78c-10 -10 -24 -16 -39 -16h-234c-15 0 -29 6 -39 16l-78 78c-11 11 -16 25 -16 40v64c0 12 5 24 13 32l120 120l-120 120c-8 8 -13 20 -13 32v64c0 15 5 29 16 40l78 78c10 10 24 16 39 16h234
c15 0 29 -6 39 -16l78 -78c11 -11 16 -25 16 -40v-57h-91v79c0 12 -10 22 -23 22h-272c-13 0 -23 -10 -23 -22v-71l90 -90c9 -9 14 -22 14 -34v-86c0 -12 -5 -25 -14 -34l-90 -90v-71c0 -12 10 -22 23 -22h272c13 0 23 10 23 22v82zM652 394h22v-90h-129l75 77
c9 9 20 13 32 13z" />
    <glyph glyph-name="paragraph" unicode="&#xb6;" horiz-adv-x="735" 
d="M519 0h-275c-8 0 -14 2 -20 8l-170 170c-6 6 -9 11 -9 20v304c0 9 3 14 9 20l170 170c6 6 12 8 20 8h275v-700zM690 0h-91v700h91v-700z" />
    <glyph glyph-name="section" unicode="&#xa7;" horiz-adv-x="377" 
d="M326 403c11 -11 16 -25 16 -40v-17c0 -15 -5 -29 -16 -40l-75 -75l62 -63c6 -6 10 -15 10 -24v-113c0 -8 -4 -16 -10 -21c-6 -6 -15 -10 -25 -10h-238v90h217l-133 133l-5 5l-78 78c-11 11 -16 25 -16 40v17c0 15 5 29 16 40l76 76l-55 54c-6 6 -10 15 -10 24v112
c0 8 4 16 10 21c6 6 15 10 25 10h236v-90h-214zM251 324v61c0 12 -10 22 -23 22h-79c-13 0 -23 -10 -23 -22v-61c0 -12 10 -22 23 -22h79c13 0 23 10 23 22z" />
    <glyph glyph-name="copyright" unicode="&#xa9;" horiz-adv-x="764" 
d="M625 684l78 -78c11 -11 16 -25 16 -40v-432c0 -15 -5 -29 -16 -40l-78 -78c-10 -10 -24 -16 -39 -16h-408c-15 0 -29 6 -39 16l-78 78c-11 11 -16 25 -16 40v432c0 15 5 29 16 40l78 78c10 10 24 16 39 16h408c15 0 29 -6 39 -16zM628 112v476c0 12 -10 22 -23 22h-446
c-13 0 -23 -10 -23 -22v-476c0 -12 10 -22 23 -22h446c13 0 23 10 23 22zM223 449l78 78c10 10 24 16 39 16h194v-90h-213c-13 0 -23 -10 -23 -22v-161c0 -12 10 -22 23 -22h213v-90h-194c-15 0 -29 6 -39 16l-78 78c-11 11 -16 25 -16 40v117c0 15 5 29 16 40z" />
    <glyph glyph-name="registered" unicode="&#xae;" horiz-adv-x="764" 
d="M625 684l78 -78c11 -11 16 -25 16 -40v-432c0 -15 -5 -29 -16 -40l-78 -78c-10 -10 -24 -16 -39 -16h-408c-15 0 -29 6 -39 16l-78 78c-11 11 -16 25 -16 40v432c0 15 5 29 16 40l78 78c10 10 24 16 39 16h408c15 0 29 -6 39 -16zM628 112v476c0 12 -10 22 -23 22h-446
c-13 0 -23 -10 -23 -22v-476c0 -12 10 -22 23 -22h446c13 0 23 10 23 22zM548 368l-78 -56l92 -96l-64 -64l-102 107l-84 -60v-41h-91v385h207c15 0 29 -6 39 -16l78 -78c11 -11 16 -25 16 -40v-9c0 -12 -4 -26 -13 -32zM447 453h-135v-146l158 108v16c0 12 -10 22 -23 22z
" />
    <glyph glyph-name="trademark" unicode="&#x2122;" horiz-adv-x="1004" 
d="M346 700v-90h-321v90h321zM533 689l163 -163c11 -11 17 -26 17 -41v-165h-91v155l-135 135v-290h-91v271c0 8 4 15 9 20l78 78c7 7 16 11 25 11s18 -4 25 -11zM872 689l78 -78c5 -5 9 -12 9 -20v-271h-91v290l-93 -93l-63 62l110 110c7 7 16 11 25 11s18 -4 25 -11z
M141 320v154c0 11 5 22 12 30l79 80v-264h-91z" />
    <glyph glyph-name="degree" unicode="&#xb0;" horiz-adv-x="468" 
d="M246 372h-24c-9 0 -14 2 -20 8l-124 124c-7 7 -9 12 -9 20v24c0 8 2 13 9 20l124 124c6 6 11 8 20 8h24c9 0 14 -2 20 -8l124 -124c7 -7 9 -12 9 -20v-24c0 -8 -2 -13 -9 -20l-124 -124c-6 -6 -11 -8 -20 -8zM196 469h76c19 0 30 11 30 30v74c0 19 -11 30 -30 30h-76
c-19 0 -30 -11 -30 -30v-74c0 -19 11 -30 30 -30z" />
    <glyph glyph-name="bar" unicode="|" horiz-adv-x="301" 
d="M196 -100h-91v860h91v-860z" />
    <glyph glyph-name="brokenbar" unicode="&#xa6;" horiz-adv-x="301" 
d="M196 760v-402h-91v402h91zM105 -100v392h91v-392h-91z" />
    <glyph glyph-name="dagger" unicode="&#x2020;" horiz-adv-x="585" 
d="M200 415h-134v90h157c18 0 28 11 28 28v167h91v-142c0 -9 -2 -13 -8 -19l-116 -116c-6 -6 -11 -8 -18 -8zM338 0h-91v361c0 9 2 13 8 19l116 116c7 7 11 8 18 8h130v-90h-153c-18 0 -28 -11 -28 -28v-386z" />
    <glyph glyph-name="daggerdbl" unicode="&#x2021;" horiz-adv-x="639" 
d="M544 549v-90h-132c-7 0 -12 2 -18 8l-116 115c-6 6 -8 9 -8 20v98h91v-123c0 -18 10 -28 28 -28h155zM548 245v-90h-132c-7 0 -12 2 -18 8l-116 115c-6 6 -8 11 -8 19v133c0 18 -10 28 -28 28h-155v90h132c7 0 11 -2 18 -9l116 -115c6 -6 8 -10 8 -18v-133
c0 -18 10 -28 28 -28h155zM369 102v-102h-91v126c0 18 -10 28 -28 28h-155v90h132c7 0 11 -3 18 -9l116 -115c6 -5 8 -10 8 -18z" />
    <glyph glyph-name="dieresis" unicode="&#xa8;" horiz-adv-x="610" 
d="M151 569h-96v96h96v-96zM332 569h-96v96h96v-96z" />
    <glyph glyph-name="dotaccent" unicode="&#x2d9;" horiz-adv-x="610" 
d="M178 569h-96v96h96v-96z" />
    <glyph glyph-name="grave" unicode="`" horiz-adv-x="610" 
d="M238 564h-110l-101 106h110z" />
    <glyph glyph-name="acute" unicode="&#xb4;" horiz-adv-x="610" 
d="M218 564h-110l101 106h110z" />
    <glyph glyph-name="hungarumlaut" unicode="&#x2dd;" horiz-adv-x="610" 
d="M499 671l-101 -106h-110l101 106h110zM319 670l-101 -106h-110l101 106h110z" />
    <glyph glyph-name="circumflex" unicode="&#x2c6;" horiz-adv-x="610" 
d="M188 619l-64 -65l-63 62l47 46c9 9 12 11 20 11h160c8 0 12 -2 20 -10l46 -46l-62 -62l-63 64c-12 13 -29 13 -41 0z" />
    <glyph glyph-name="caron" unicode="&#x2c7;" horiz-adv-x="610" 
d="M61 621l63 62l64 -65c12 -13 29 -13 41 0l63 64l62 -62l-46 -46c-8 -8 -12 -10 -20 -10h-160c-8 0 -11 2 -20 11z" />
    <glyph glyph-name="breve" unicode="&#x2d8;" horiz-adv-x="610" 
d="M221 564h-35c-15 0 -29 6 -39 16l-68 68c-11 11 -16 25 -16 40h91v-22c0 -12 10 -22 23 -22h53c13 0 23 10 23 22v22h91c0 -15 -5 -29 -16 -40l-68 -68c-10 -10 -24 -16 -39 -16z" />
    <glyph glyph-name="ring" unicode="&#x2da;" horiz-adv-x="610" 
d="M144 519l-97 97c-7 6 -6 16 0 22l95 95c6 6 16 7 22 0l97 -97c7 -6 6 -16 0 -22l-95 -95c-6 -6 -16 -7 -22 0zM127 640v-28c0 -7 6 -13 13 -13h28c9 0 13 4 13 13v28c0 7 -6 13 -13 13h-28c-9 0 -13 -4 -13 -13z" />
    <glyph glyph-name="tilde" unicode="&#x2dc;" horiz-adv-x="610" 
d="M243 562h-7c-8 0 -13 1 -19 7l-22 22c-12 12 -17 15 -26 15c-6 0 -11 -1 -16 -6l-44 -44l-63 63l63 62c6 6 11 7 18 7h7c8 0 13 -1 19 -7l22 -22c12 -12 17 -15 26 -15c6 0 11 1 17 7l43 43l63 -63l-63 -62c-6 -6 -11 -7 -18 -7z" />
    <glyph glyph-name="macron" unicode="&#xaf;" horiz-adv-x="610" 
d="M338 577h-273v80h273v-80z" />
    <glyph glyph-name="cedilla" unicode="&#xb8;" horiz-adv-x="610" 
d="M108 -161h-58v90h81c18 0 28 10 28 28v75h91v-51c0 -9 -1 -14 -7 -19l-116 -115c-7 -6 -12 -8 -19 -8z" />
    <glyph glyph-name="ogonek" unicode="&#x2db;" horiz-adv-x="610" 
d="M144 -109h130v-90h-156c-19 0 -33 14 -33 33v104c0 7 3 14 8 19l95 95l65 -52z" />
    </font>
</defs>
</svg>
